<svg width="442" height="413" viewBox="0 0 442 413" fill="none" xmlns="http://www.w3.org/2000/svg">
<path opacity="0.6" fill-rule="evenodd" clip-rule="evenodd" d="M0 164.887L71.1035 132.501L142.271 164.887L71.1035 197.319L0 164.887Z" fill="white" fill-opacity="0.1"/>
<path opacity="0.5" fill-rule="evenodd" clip-rule="evenodd" d="M146.599 96.1578L217.766 63.7261L288.87 96.1578L217.766 128.589L146.599 96.1578Z" fill="white" fill-opacity="0.1"/>
<path opacity="0.7" fill-rule="evenodd" clip-rule="evenodd" d="M292.562 164.705L363.665 132.274L434.832 164.705L363.665 197.137L292.562 164.705Z" fill="#501970"/>
<path fill-rule="evenodd" clip-rule="evenodd" d="M299.628 311.307L370.731 278.876L441.899 311.307L370.731 343.739L299.628 311.307Z" fill="white" fill-opacity="0.1"/>
<path fill-rule="evenodd" clip-rule="evenodd" d="M146.599 380.037L217.703 347.605L288.87 380.037L217.703 412.469L146.599 380.037Z" fill="white" fill-opacity="0.1"/>
<path opacity="0.8" fill-rule="evenodd" clip-rule="evenodd" d="M3.81934 304.712L74.9229 272.28L146.09 304.712L74.9229 337.098L3.81934 304.712Z" fill="white" fill-opacity="0.1"/>
<path opacity="0.3" d="M152.901 254.359L334.193 171.437L335.084 171.847L153.856 254.768L152.901 254.359ZM165.632 260.09L166.524 260.499L347.815 177.578L346.924 177.169L165.632 260.09ZM178.555 265.958L179.446 266.367L360.737 183.446L359.846 183.036L178.555 265.958ZM191.604 271.871L192.495 272.28L373.787 189.359L372.896 188.95L191.604 271.871ZM208.855 277.193L210.255 277.375L386.454 196.773L385.818 196.273L208.855 277.193ZM111.589 235.664L112.48 236.073L293.771 153.152L292.88 152.743L111.589 235.664ZM70.3397 216.969L71.2309 217.378L252.523 134.457L251.631 134.048L70.3397 216.969ZM125.147 241.804L126.038 242.214L307.33 159.293L306.439 158.883L125.147 241.804ZM84.7259 223.474L85.6171 223.883L266.909 141.007L266.018 140.598L84.7259 223.474ZM47.6782 203.642L48.0602 204.278L224.832 123.449L223.559 123.222L47.6782 203.642ZM138.069 247.627L138.961 248.036L320.252 165.115L319.361 164.705L138.069 247.627ZM97.648 229.341L98.5392 229.751L279.831 146.829L278.94 146.42L97.648 229.341ZM57.2266 211.01L58.1178 211.42L239.346 128.544L238.455 128.135L57.2266 211.01ZM281.932 254.541L282.823 254.131L101.531 171.21L100.64 171.619L281.932 254.541ZM269.264 260.272L270.155 259.862L88.8635 176.941L87.9723 177.351L269.264 260.272ZM256.342 266.094L257.233 265.685L75.9414 182.809L75.0502 183.218L256.342 266.094ZM243.101 272.007L244.056 271.598L62.8283 188.722L61.9371 189.131L243.101 272.007ZM225.405 277.056L226.742 276.829L50.0971 196.091L49.5242 196.637L225.405 277.056ZM322.417 236.21L323.308 235.8L141.952 152.879L141.061 153.288L322.417 236.21ZM364.684 217.06L365.575 216.651L184.284 133.729L183.392 134.139L364.684 217.06ZM309.685 241.986L310.577 241.577L129.285 158.656L128.394 159.065L309.685 241.986ZM350.171 223.655L351.062 223.246L169.706 140.325L168.815 140.734L350.171 223.655ZM389.319 204.779L389.764 204.142L212.419 123.04L211.083 123.222L389.319 204.779ZM296.763 247.809L297.655 247.399L116.363 164.478L115.472 164.887L296.763 247.809ZM337.248 229.523L338.14 229.114L156.848 146.147L155.957 146.556L337.248 229.523ZM377.733 211.192L378.625 210.783L197.269 127.862L196.378 128.271L377.733 211.192Z" fill="#9B5CC4"/>
<path opacity="0.7" d="M56.5899 185.629L195.487 122.722C203.126 119.31 210.446 117.627 217.894 117.718C225.341 117.809 232.726 119.629 240.555 123.131L375.569 184.264C384.163 188.131 391.865 192.543 395.302 197.092C399.376 202.459 398.294 207.781 387.982 212.42L250.676 274.555C240.364 279.24 230.307 282.105 220.058 282.651C209.746 283.197 199.434 281.332 188.803 276.51L54.4893 215.741C49.1422 213.33 45.3229 210.783 42.9676 208.145C40.9943 205.916 40.0394 203.642 40.1031 201.322C40.1667 199.002 41.1852 196.728 43.0949 194.544C45.8958 191.406 50.3517 188.449 56.5899 185.629ZM199.243 126.952L60.3456 189.859C54.9985 192.27 51.2428 194.726 49.0785 197.137C47.8054 198.593 47.1689 199.957 47.1052 201.322C47.1052 202.641 47.6781 204.051 48.8876 205.416C50.6699 207.462 53.7891 209.464 58.245 211.465L192.559 272.235C201.852 276.419 210.764 278.057 219.612 277.602C228.588 277.147 237.563 274.509 246.921 270.279L384.226 208.19C390.465 205.37 391.356 202.368 389.128 199.411C386.327 195.727 379.516 191.861 371.813 188.404L236.799 127.361C230.052 124.314 223.814 122.767 217.766 122.722C211.719 122.631 205.672 124.041 199.243 126.952Z" fill="#9D79C6"/>
<path opacity="0.7" d="M67.2842 196.728L196.187 138.369C203.253 135.185 210.064 133.638 216.939 133.729C223.814 133.82 230.689 135.503 237.945 138.733L363.284 195.454C371.241 199.048 378.37 203.141 381.617 207.371C385.372 212.329 384.354 217.287 374.869 221.609L247.43 279.24C237.882 283.561 228.524 286.244 219.04 286.745C209.491 287.245 199.879 285.517 190.013 281.059L65.3746 224.656C60.4094 222.427 56.8447 220.062 54.6804 217.606C52.8344 215.559 52.0068 213.421 52.0068 211.238C52.0705 209.1 53.0253 207.008 54.8077 204.915C57.3539 202.095 61.4915 199.32 67.2842 196.728ZM199.625 142.281L70.7216 200.64C65.7565 202.868 62.2554 205.143 60.2821 207.371C59.1363 208.691 58.4997 210.01 58.4997 211.283C58.4997 212.511 59.009 213.785 60.1548 215.104C61.8098 216.969 64.6743 218.879 68.812 220.744L193.45 277.147C202.044 281.059 210.382 282.56 218.594 282.105C226.933 281.65 235.272 279.24 243.993 275.328L371.432 217.697C377.224 215.059 377.988 212.284 375.951 209.555C373.341 206.098 367.039 202.55 359.91 199.366L234.572 142.645C228.333 139.825 222.541 138.369 216.939 138.323C211.274 138.278 205.672 139.597 199.625 142.281Z" fill="#9D79C6"/>
<path opacity="0.7" d="M81.2881 208.509L198.224 155.563C204.653 152.697 210.828 151.287 217.066 151.332C223.304 151.378 229.542 152.925 236.163 155.881L349.852 207.326C357.109 210.555 363.538 214.285 366.466 218.152C369.903 222.655 368.949 227.158 360.355 231.07L244.756 283.379C236.099 287.291 227.633 289.747 218.976 290.202C210.318 290.657 201.598 289.11 192.622 285.062L79.5694 233.799C75.0498 231.752 71.8034 229.614 69.83 227.385C68.175 225.52 67.3475 223.61 67.4111 221.609C67.4748 219.653 68.3023 217.742 69.9574 215.877C72.249 213.376 76.0683 210.874 81.2881 208.509ZM201.343 159.111L84.4072 212.056C79.8877 214.103 76.7049 216.15 74.9225 218.197C73.8404 219.425 73.3311 220.608 73.2675 221.745C73.2675 222.882 73.713 224.019 74.7952 225.202C76.3229 226.885 78.9328 228.613 82.6885 230.296L195.741 281.468C203.571 285.016 211.082 286.381 218.53 285.971C226.041 285.562 233.68 283.379 241.573 279.831L357.172 227.522C362.456 225.157 363.156 222.609 361.31 220.153C358.955 217.014 353.226 213.83 346.733 210.874L232.98 159.429C227.314 156.882 222.095 155.563 216.939 155.517C211.91 155.472 206.817 156.654 201.343 159.111Z" fill="#9D79C6"/>
<path fill-rule="evenodd" clip-rule="evenodd" d="M70.7217 133.547V125.042L116.936 145.419V153.925L70.7217 133.547Z" fill="#E0E0E0"/>
<path fill-rule="evenodd" clip-rule="evenodd" d="M123.11 151.151V142.599L70.7217 166.297V174.849L123.11 151.151Z" fill="#A1A1A1"/>
<path fill-rule="evenodd" clip-rule="evenodd" d="M70.7215 133.547V125.042L24.8257 145.51V154.062L70.7215 133.547Z" fill="#BDBDBD"/>
<path fill-rule="evenodd" clip-rule="evenodd" d="M18.3965 151.151V142.599L70.7215 166.297V174.849L18.3965 151.151Z" fill="#EDEDED"/>
<path fill-rule="evenodd" clip-rule="evenodd" d="M18.3965 142.599L70.7852 118.901L123.174 142.599L70.7852 166.297L18.3965 142.599ZM31.4459 142.599L70.7852 125.042L110.124 142.599L70.7852 160.157L31.4459 142.599Z" fill="#D4D4D4"/>
<path fill-rule="evenodd" clip-rule="evenodd" d="M28.709 103.663L70.7218 84.4678L112.798 103.663L70.7218 122.813L28.709 103.663Z" fill="#C2C2C2"/>
<path fill-rule="evenodd" clip-rule="evenodd" d="M70.7217 122.813L112.798 103.663V132.82L70.7217 151.969V122.813Z" fill="#949494"/>
<path fill-rule="evenodd" clip-rule="evenodd" d="M34.5645 103.481L39.275 101.343L43.9855 103.481L39.275 105.664L34.5645 103.481Z" fill="#792EED"/>
<path fill-rule="evenodd" clip-rule="evenodd" d="M65.4385 117.491L70.149 115.307L74.8595 117.491L70.149 119.629L65.4385 117.491Z" fill="#792EED"/>
<path fill-rule="evenodd" clip-rule="evenodd" d="M65.4385 89.5168L70.149 87.379L74.8595 89.5168L70.149 91.6547L65.4385 89.5168Z" fill="#792EED"/>
<path fill-rule="evenodd" clip-rule="evenodd" d="M96.3115 103.481L101.022 101.343L105.733 103.481L101.022 105.664L96.3115 103.481Z" fill="#792EED"/>
<path fill-rule="evenodd" clip-rule="evenodd" d="M43.9863 103.481L70.1489 91.6547L96.3114 103.481L70.1489 115.307L43.9863 103.481ZM50.5429 103.481L70.1489 94.7022L89.7548 103.481L70.1489 112.26L50.5429 103.481Z" fill="#792EED"/>
<path fill-rule="evenodd" clip-rule="evenodd" d="M80.652 129.226L104.268 118.446C106.051 117.627 107.642 117.582 107.642 119.174V121.084C107.642 122.267 105.987 123.04 104.65 123.677L83.3892 133.365C80.7793 134.548 77.6602 135.867 77.6602 133.729V132.501C77.6602 130.636 78.4877 130.227 80.652 129.226Z" fill="#792EED"/>
<path d="M80.1435 128.635L103.76 117.855C104.651 117.445 105.606 117.172 106.37 117.172C106.752 117.172 107.07 117.218 107.388 117.354C107.706 117.491 108.025 117.627 108.216 117.9C108.47 118.219 108.661 118.628 108.661 119.174V121.084C108.661 121.857 108.152 122.54 107.388 123.086C106.752 123.54 105.924 123.95 105.224 124.268L83.9628 133.957C82.5624 134.594 81.0983 135.23 79.8252 135.458C77.9792 135.822 76.7061 135.458 76.7061 133.729V132.501C76.7061 131.41 76.9607 130.727 77.5972 130.136C78.1065 129.59 78.934 129.181 80.1435 128.635ZM104.778 119.037L81.162 129.818C80.1435 130.272 79.5069 130.591 79.125 130.955C78.8067 131.273 78.6157 131.728 78.6157 132.501V133.729C78.6157 134.139 78.8704 134.184 79.3159 134.139C80.2708 133.957 81.6712 133.365 82.8807 132.774L104.142 123.086C104.778 122.813 105.478 122.449 105.988 122.085C106.433 121.766 106.688 121.448 106.688 121.084V119.174C106.688 118.901 106.624 118.764 106.561 118.673L106.497 118.628C106.433 118.628 106.433 118.628 106.306 118.628C105.924 118.628 105.351 118.764 104.778 119.037Z" fill="#393185"/>
<path fill-rule="evenodd" clip-rule="evenodd" d="M217.384 206.416V197.91L263.598 218.288V226.794L217.384 206.416Z" fill="#E0E0E0"/>
<path fill-rule="evenodd" clip-rule="evenodd" d="M269.772 223.974V215.468L217.384 239.166V247.672L269.772 223.974Z" fill="#A1A1A1"/>
<path fill-rule="evenodd" clip-rule="evenodd" d="M217.385 206.416V197.91L171.489 218.379V226.93L217.385 206.416Z" fill="#BDBDBD"/>
<path fill-rule="evenodd" clip-rule="evenodd" d="M165.059 223.974V215.468L217.384 239.166V247.672L165.059 223.974Z" fill="#EDEDED"/>
<path fill-rule="evenodd" clip-rule="evenodd" d="M165.059 215.468L217.448 191.77L269.837 215.468L217.448 239.166L165.059 215.468ZM178.109 215.468L217.448 197.91L256.787 215.468L217.448 233.026L178.109 215.468Z" fill="#D4D4D4"/>
<path fill-rule="evenodd" clip-rule="evenodd" d="M217.384 195.681L175.372 176.486V205.688L217.384 224.838V195.681Z" fill="#DEDEDE"/>
<path fill-rule="evenodd" clip-rule="evenodd" d="M211.528 196.819L179.7 182.309V204.096L211.528 218.561V196.819Z" fill="#393185"/>
<path fill-rule="evenodd" clip-rule="evenodd" d="M175.372 176.486L217.384 157.337L259.461 176.486L217.384 195.682L175.372 176.486Z" fill="#C2C2C2"/>
<path fill-rule="evenodd" clip-rule="evenodd" d="M190.267 176.486L217.384 164.114L244.565 176.486L217.384 188.904L190.267 176.486Z" fill="#393185"/>
<path fill-rule="evenodd" clip-rule="evenodd" d="M217.384 195.681L259.46 176.486V205.688L217.384 224.838V195.681Z" fill="#949494"/>
<path fill-rule="evenodd" clip-rule="evenodd" d="M180.782 176.486L185.556 174.348L190.267 176.486L185.556 178.67L180.782 176.486Z" fill="#393185"/>
<path fill-rule="evenodd" clip-rule="evenodd" d="M212.674 191.042L217.385 188.904L222.159 191.042L217.385 193.18L212.674 191.042Z" fill="#393185"/>
<path fill-rule="evenodd" clip-rule="evenodd" d="M212.674 161.976L217.385 159.793L222.159 161.976L217.385 164.114L212.674 161.976Z" fill="#393185"/>
<path fill-rule="evenodd" clip-rule="evenodd" d="M244.566 176.486L249.276 174.348L254.051 176.486L249.276 178.67L244.566 176.486Z" fill="#393185"/>
<path fill-rule="evenodd" clip-rule="evenodd" d="M217.449 66.4553V57.9494L263.599 78.3272V86.8331L217.449 66.4553Z" fill="#E0E0E0"/>
<path fill-rule="evenodd" clip-rule="evenodd" d="M269.774 84.013V75.5071L217.449 99.2054V107.711L269.774 84.013Z" fill="#A1A1A1"/>
<path fill-rule="evenodd" clip-rule="evenodd" d="M217.448 66.4553V57.9494L171.489 78.4182V86.9696L217.448 66.4553Z" fill="#BDBDBD"/>
<path fill-rule="evenodd" clip-rule="evenodd" d="M165.059 84.013V75.5071L217.448 99.2054V107.711L165.059 84.013Z" fill="#EDEDED"/>
<path fill-rule="evenodd" clip-rule="evenodd" d="M165.059 75.5071L217.448 51.8088L269.837 75.5071L217.448 99.2054L165.059 75.5071ZM178.109 75.5071L217.448 57.9494L256.787 75.5071L217.448 93.0647L178.109 75.5071Z" fill="#D4D4D4"/>
<path fill-rule="evenodd" clip-rule="evenodd" d="M217.448 55.7206L175.372 36.5255V65.7276L217.448 84.8772V55.7206Z" fill="#DEDEDE"/>
<path fill-rule="evenodd" clip-rule="evenodd" d="M175.372 36.5254L217.448 17.3757L259.461 36.5254L217.448 55.7206L175.372 36.5254Z" fill="#C2C2C2"/>
<path fill-rule="evenodd" clip-rule="evenodd" d="M217.449 55.7206L259.462 36.5255V65.7276L217.449 84.8772V55.7206Z" fill="#949494"/>
<path fill-rule="evenodd" clip-rule="evenodd" d="M181.229 36.3889L185.939 34.2511L190.713 36.3889L185.939 38.5268L181.229 36.3889Z" fill="#792EED"/>
<path fill-rule="evenodd" clip-rule="evenodd" d="M212.101 50.3987L216.812 48.2153L221.522 50.3987L216.812 52.5365L212.101 50.3987Z" fill="#792EED"/>
<path fill-rule="evenodd" clip-rule="evenodd" d="M212.101 22.4247L216.812 20.2414L221.522 22.4247L216.812 24.5626L212.101 22.4247Z" fill="#792EED"/>
<path fill-rule="evenodd" clip-rule="evenodd" d="M242.974 36.3889L247.685 34.2511L252.395 36.3889L247.685 38.5268L242.974 36.3889Z" fill="#792EED"/>
<path fill-rule="evenodd" clip-rule="evenodd" d="M190.713 36.389L216.875 24.5626L243.038 36.389L216.875 48.2154L190.713 36.389ZM197.206 36.389L216.812 27.6101L236.481 36.389L216.875 45.1678L197.206 36.389Z" fill="#792EED"/>
<path fill-rule="evenodd" clip-rule="evenodd" d="M207.072 62.7254L183.455 51.9452C181.673 51.1265 180.082 51.081 180.082 52.673V54.5834C180.082 55.7661 181.737 56.5393 183.073 57.1761L204.334 66.8647C206.944 68.0473 210.063 69.3664 210.063 67.2286V66.0005C210.063 64.1355 209.236 63.7261 207.072 62.7254Z" fill="#792EED"/>
<path d="M206.563 63.3168L182.947 52.5366C182.31 52.2636 181.801 52.0817 181.419 52.0817C181.355 52.0817 181.292 52.0817 181.228 52.0817C181.228 52.0817 181.164 52.0817 181.164 52.1272C181.101 52.2182 181.037 52.4001 181.037 52.6275V54.538C181.037 54.9018 181.355 55.2657 181.737 55.5386C182.247 55.9025 182.947 56.2664 183.583 56.5393L204.844 66.2279C206.054 66.7737 207.454 67.3651 208.409 67.5925C208.791 67.6835 209.109 67.5925 209.109 67.1831V65.955C209.109 65.1817 208.982 64.7269 208.6 64.4085C208.218 64.0901 207.518 63.7716 206.563 63.3168ZM183.965 51.3994L207.582 62.1796C208.791 62.7255 209.555 63.0894 210.128 63.6807C210.701 64.272 211.019 64.9543 211.019 66.046V67.2741C211.019 69.0026 209.746 69.3664 207.9 69.0026C206.69 68.7751 205.163 68.0928 203.762 67.5015L182.565 57.7675C181.865 57.4491 181.037 57.0397 180.401 56.5848C179.637 56.039 179.127 55.4022 179.127 54.5834V52.673C179.127 52.1272 179.255 51.7178 179.573 51.3994C179.764 51.172 180.082 50.99 180.401 50.8536C180.719 50.7626 181.037 50.6716 181.419 50.6716C182.183 50.7171 183.074 50.99 183.965 51.3994Z" fill="#393185"/>
<path fill-rule="evenodd" clip-rule="evenodd" d="M227.315 62.1341L250.931 51.3539C252.714 50.5352 254.305 50.4897 254.305 52.0817V53.9921C254.305 55.1748 252.65 55.948 251.313 56.5848L230.052 66.2734C227.442 67.456 224.323 68.7751 224.323 66.6373V65.4091C224.323 63.5442 225.151 63.1348 227.315 62.1341Z" fill="#792EED"/>
<path d="M226.806 61.5428L250.422 50.7626C251.313 50.3532 252.268 50.0803 253.032 50.0803C253.414 50.0803 253.732 50.1258 254.05 50.2623C254.369 50.3987 254.687 50.5352 254.878 50.8081C255.132 51.1265 255.323 51.5359 255.323 52.0817V53.9921C255.323 54.7654 254.814 55.4477 254.05 55.9935C253.414 56.4484 252.586 56.8578 251.886 57.1762L230.625 66.8647C229.224 67.5015 227.76 68.1383 226.487 68.3658C224.641 68.7297 223.368 68.3658 223.368 66.6373V65.4092C223.368 64.3175 223.623 63.6352 224.259 63.0439C224.769 62.498 225.596 62.0887 226.806 61.5428ZM251.44 51.9453L227.824 62.7255C226.806 63.1803 226.169 63.4987 225.787 63.8626C225.469 64.181 225.278 64.6359 225.278 65.4092V66.6373C225.278 67.0467 225.532 67.0921 225.978 67.0467C226.933 66.8647 228.333 66.2734 229.543 65.6821L250.804 55.9935C251.44 55.7206 252.141 55.3567 252.65 54.9928C253.095 54.6744 253.35 54.356 253.35 53.9921V52.0817C253.35 51.8088 253.286 51.6723 253.223 51.5814L253.159 51.5359C253.095 51.5359 253.095 51.5359 252.968 51.5359C252.586 51.5359 252.013 51.6723 251.44 51.9453Z" fill="#393185"/>
<path fill-rule="evenodd" clip-rule="evenodd" d="M363.666 133.547V125.042L409.816 145.419V153.925L363.666 133.547Z" fill="#E0E0E0"/>
<path fill-rule="evenodd" clip-rule="evenodd" d="M415.991 151.151V142.599L363.666 166.297V174.849L415.991 151.151Z" fill="#A1A1A1"/>
<path fill-rule="evenodd" clip-rule="evenodd" d="M363.666 133.547V125.042L317.706 145.51V154.062L363.666 133.547Z" fill="#BDBDBD"/>
<path fill-rule="evenodd" clip-rule="evenodd" d="M311.277 151.151V142.599L363.666 166.297V174.849L311.277 151.151Z" fill="#EDEDED"/>
<path fill-rule="evenodd" clip-rule="evenodd" d="M311.277 142.599L363.666 118.901L416.054 142.599L363.666 166.297L311.277 142.599ZM324.326 142.599L363.666 125.042L403.005 142.599L363.666 160.157L324.326 142.599Z" fill="#D4D4D4"/>
<path fill-rule="evenodd" clip-rule="evenodd" d="M363.666 122.813L321.589 103.663V132.82L363.666 151.969V122.813Z" fill="#DEDEDE"/>
<path fill-rule="evenodd" clip-rule="evenodd" d="M70.7218 122.813L28.709 103.663V132.82L70.7218 151.969V122.813Z" fill="#DEDEDE"/>
<path fill-rule="evenodd" clip-rule="evenodd" d="M321.589 103.663L363.666 84.4678L405.679 103.663L363.666 122.813L321.589 103.663Z" fill="#C2C2C2"/>
<path fill-rule="evenodd" clip-rule="evenodd" d="M363.666 122.813L405.678 103.663V132.82L363.666 151.969V122.813Z" fill="#949494"/>
<path fill-rule="evenodd" clip-rule="evenodd" d="M327.445 103.481L332.156 101.343L336.93 103.481L332.156 105.664L327.445 103.481Z" fill="#792EED"/>
<path fill-rule="evenodd" clip-rule="evenodd" d="M358.319 117.491L363.029 115.307L367.804 117.491L363.029 119.629L358.319 117.491Z" fill="#792EED"/>
<path fill-rule="evenodd" clip-rule="evenodd" d="M358.319 89.5168L363.029 87.379L367.804 89.5168L363.029 91.6547L358.319 89.5168Z" fill="#792EED"/>
<path fill-rule="evenodd" clip-rule="evenodd" d="M389.191 103.481L393.902 101.343L398.676 103.481L393.902 105.664L389.191 103.481Z" fill="#792EED"/>
<path fill-rule="evenodd" clip-rule="evenodd" d="M336.93 103.481L363.093 91.6547L389.255 103.481L363.093 115.307L336.93 103.481ZM343.423 103.481L363.029 94.7022L382.635 103.481L363.029 112.26L343.423 103.481Z" fill="#792EED"/>
<path fill-rule="evenodd" clip-rule="evenodd" d="M353.289 129.818L329.673 119.037C327.891 118.219 326.299 118.173 326.299 119.765V121.676C326.299 122.858 327.954 123.631 329.291 124.268L350.552 133.957C353.162 135.139 356.281 136.459 356.281 134.321V133.093C356.281 131.228 355.454 130.818 353.289 129.818Z" fill="#792EED"/>
<path d="M352.781 130.409L329.164 119.629C328.528 119.356 328.018 119.174 327.637 119.174C327.573 119.174 327.509 119.174 327.446 119.174C327.446 119.174 327.382 119.174 327.382 119.219C327.318 119.31 327.255 119.492 327.255 119.72V121.63C327.255 121.994 327.573 122.358 327.955 122.631C328.464 122.995 329.164 123.359 329.801 123.631L351.062 133.32C352.271 133.866 353.672 134.457 354.627 134.685C355.008 134.776 355.327 134.685 355.327 134.275V133.047C355.327 132.274 355.199 131.819 354.818 131.501C354.436 131.182 353.735 130.864 352.781 130.409ZM330.183 118.491L353.799 129.272C355.008 129.818 355.772 130.181 356.345 130.773C356.918 131.364 357.236 132.046 357.236 133.138V134.366C357.236 136.095 355.963 136.459 354.117 136.095C352.908 135.867 351.38 135.185 349.98 134.594L328.719 124.905C328.018 124.587 327.191 124.177 326.554 123.722C325.79 123.177 325.281 122.54 325.281 121.721V119.811C325.281 119.265 325.409 118.855 325.727 118.537C325.918 118.31 326.236 118.128 326.554 117.991C326.873 117.9 327.191 117.809 327.573 117.809C328.4 117.809 329.292 118.082 330.183 118.491Z" fill="#393185"/>
<path fill-rule="evenodd" clip-rule="evenodd" d="M373.532 129.226L397.148 118.446C398.931 117.627 400.522 117.582 400.522 119.174V121.084C400.522 122.267 398.867 123.04 397.53 123.677L376.269 133.365C373.659 134.548 370.54 135.867 370.54 133.729V132.501C370.54 130.636 371.368 130.227 373.532 129.226Z" fill="#792EED"/>
<path d="M373.023 128.635L396.639 117.855C397.53 117.445 398.485 117.172 399.249 117.172C399.631 117.172 399.949 117.218 400.268 117.354C400.586 117.491 400.904 117.627 401.095 117.9C401.35 118.219 401.541 118.628 401.541 119.174V121.084C401.541 121.857 401.031 122.54 400.268 123.086C399.631 123.54 398.803 123.95 398.103 124.268L376.842 133.957C375.442 134.594 373.978 135.23 372.705 135.458C370.859 135.822 369.585 135.458 369.585 133.729V132.501C369.585 131.41 369.84 130.727 370.477 130.136C371.05 129.59 371.813 129.181 373.023 128.635ZM397.658 119.037L374.041 129.818C373.023 130.272 372.386 130.591 372.004 130.955C371.686 131.273 371.495 131.728 371.495 132.501V133.729C371.495 134.139 371.75 134.184 372.195 134.139C373.15 133.957 374.551 133.365 375.76 132.774L397.021 123.086C397.658 122.813 398.358 122.449 398.867 122.085C399.313 121.766 399.567 121.448 399.567 121.084V119.174C399.567 118.901 399.504 118.764 399.44 118.673L399.376 118.628C399.313 118.628 399.313 118.628 399.185 118.628C398.803 118.628 398.294 118.764 397.658 119.037Z" fill="#393185"/>
<path fill-rule="evenodd" clip-rule="evenodd" d="M128.521 170.846C128.712 170.619 128.903 170.437 129.094 170.209L132.977 171.983C132.786 172.211 132.595 172.393 132.404 172.62C131.131 172.029 129.857 171.437 128.521 170.846ZM122.473 167.253L126.356 169.027C126.165 169.209 126.038 169.391 125.847 169.618L121.964 167.844C122.155 167.617 122.282 167.435 122.473 167.253ZM115.599 164.114L119.482 165.888C119.291 166.07 119.163 166.252 118.972 166.434L115.089 164.66C115.28 164.478 115.408 164.296 115.599 164.114ZM141.57 175.895L145.453 177.669C145.262 177.896 145.071 178.078 144.88 178.306C143.607 177.714 142.27 177.123 140.997 176.532C141.188 176.304 141.379 176.077 141.57 175.895ZM168.178 188.04L172.061 189.814C171.87 190.041 171.679 190.223 171.488 190.451C170.215 189.859 168.878 189.268 167.605 188.677C167.796 188.495 167.987 188.267 168.178 188.04ZM161.558 185.083L165.441 186.857C165.25 187.039 165.123 187.221 164.932 187.449L161.049 185.675C161.24 185.447 161.367 185.311 161.558 185.083ZM134.95 172.938L138.833 174.712C138.642 174.894 138.515 175.076 138.324 175.304L134.441 173.53C134.632 173.302 134.759 173.12 134.95 172.938ZM148.063 178.943L151.946 180.717C151.755 180.898 151.628 181.08 151.437 181.308L147.554 179.534C147.745 179.306 147.936 179.125 148.063 178.943ZM154.683 181.945L158.566 183.719C158.375 183.901 158.248 184.083 158.057 184.264L154.174 182.491C154.365 182.309 154.492 182.127 154.683 181.945Z" fill="white"/>
<path fill-rule="evenodd" clip-rule="evenodd" d="M270.665 102.935C270.856 102.708 271.047 102.526 271.238 102.298L275.184 104.027C274.993 104.254 274.802 104.436 274.611 104.664C273.275 104.118 272.002 103.527 270.665 102.935ZM264.49 99.4328L268.437 101.116C268.246 101.298 268.119 101.48 267.928 101.707L263.981 99.9786C264.172 99.8421 264.299 99.6602 264.49 99.4328ZM257.488 96.4307L261.435 98.1591C261.244 98.3411 261.116 98.523 260.989 98.705L257.042 96.9765C257.17 96.7946 257.361 96.6126 257.488 96.4307ZM283.842 107.802L287.788 109.531C287.597 109.758 287.406 109.94 287.215 110.167C285.879 109.622 284.605 109.03 283.269 108.439C283.46 108.212 283.651 108.03 283.842 107.802ZM310.832 119.538L314.778 121.266C314.587 121.494 314.396 121.675 314.205 121.903C312.869 121.357 311.595 120.766 310.259 120.174C310.45 119.993 310.641 119.765 310.832 119.538ZM304.084 116.717L308.031 118.4C307.84 118.582 307.712 118.764 307.522 118.992L303.575 117.263C303.766 117.081 303.893 116.899 304.084 116.717ZM277.094 104.937L281.041 106.62C280.85 106.802 280.722 106.983 280.531 107.211L276.585 105.482C276.776 105.3 276.903 105.119 277.094 104.937ZM290.462 110.759L294.408 112.487C294.281 112.669 294.09 112.851 293.963 113.079L290.016 111.35C290.143 111.123 290.271 110.941 290.462 110.759ZM297.082 113.67L301.029 115.398C300.838 115.58 300.71 115.762 300.583 115.944L296.636 114.216C296.827 114.034 296.955 113.852 297.082 113.67Z" fill="white"/>
<path fill-rule="evenodd" clip-rule="evenodd" d="M77.8506 279.422V270.87L124.001 291.248V299.799L77.8506 279.422Z" fill="#E0E0E0"/>
<path fill-rule="evenodd" clip-rule="evenodd" d="M130.239 296.979V288.473L77.8506 312.172V320.677L130.239 296.979Z" fill="#A1A1A1"/>
<path fill-rule="evenodd" clip-rule="evenodd" d="M77.8509 279.422V270.87L31.9551 291.384V299.89L77.8509 279.422Z" fill="#BDBDBD"/>
<path fill-rule="evenodd" clip-rule="evenodd" d="M25.4624 296.979V288.473L77.8511 312.172V320.677L25.4624 296.979Z" fill="#EDEDED"/>
<path fill-rule="evenodd" clip-rule="evenodd" d="M25.4624 288.473L77.8511 264.775L130.24 288.473L77.8511 312.172L25.4624 288.473ZM38.5118 288.473L77.8511 270.916L117.19 288.473L77.8511 306.031L38.5118 288.473Z" fill="#D4D4D4"/>
<path fill-rule="evenodd" clip-rule="evenodd" d="M77.8512 268.641L35.8384 249.492V278.648L77.8512 297.843V268.641Z" fill="#DEDEDE"/>
<path fill-rule="evenodd" clip-rule="evenodd" d="M35.8384 249.492L77.8512 230.342L119.864 249.492L77.8512 268.641L35.8384 249.492Z" fill="#C2C2C2"/>
<path fill-rule="evenodd" clip-rule="evenodd" d="M77.8506 268.641L119.863 249.492V278.648L77.8506 297.843V268.641Z" fill="#949494"/>
<path fill-rule="evenodd" clip-rule="evenodd" d="M41.6948 249.355L46.4054 247.172L51.1159 249.355L46.4054 251.493L41.6948 249.355Z" fill="#792EED"/>
<path fill-rule="evenodd" clip-rule="evenodd" d="M72.5679 263.319L77.2784 261.182L81.9889 263.319L77.2784 265.457L72.5679 263.319Z" fill="#792EED"/>
<path fill-rule="evenodd" clip-rule="evenodd" d="M72.5679 235.345L77.2784 233.208L81.9889 235.345L77.2784 237.529L72.5679 235.345Z" fill="#792EED"/>
<path fill-rule="evenodd" clip-rule="evenodd" d="M103.441 249.355L108.151 247.172L112.862 249.355L108.151 251.493L103.441 249.355Z" fill="#792EED"/>
<path fill-rule="evenodd" clip-rule="evenodd" d="M51.1157 249.355L77.2782 237.529L103.441 249.355L77.2782 261.182L51.1157 249.355ZM57.6086 249.355L77.2146 240.576L96.8206 249.355L77.2146 258.134L57.6086 249.355Z" fill="#792EED"/>
<path fill-rule="evenodd" clip-rule="evenodd" d="M67.4757 275.692L43.9231 264.911C42.1407 264.093 40.5493 264.047 40.5493 265.639V267.55C40.5493 268.732 42.2044 269.506 43.5411 270.142L64.8022 279.831C67.4121 281.014 70.5312 282.333 70.5312 280.195V278.967C70.4675 277.102 69.7037 276.647 67.4757 275.692Z" fill="#792EED"/>
<path d="M66.9659 276.283L43.3496 265.503C42.7131 265.23 42.2038 265.048 41.8219 265.048C41.7582 265.048 41.6946 265.048 41.6309 265.048C41.6309 265.048 41.5673 265.048 41.5673 265.093C41.5036 265.184 41.4399 265.366 41.4399 265.594V267.504C41.4399 267.868 41.7582 268.232 42.1402 268.505C42.6494 268.869 43.3496 269.233 43.9862 269.506L65.2472 279.194C66.4567 279.74 67.8571 280.331 68.8119 280.559C69.1939 280.65 69.5121 280.559 69.5121 280.149V278.921C69.5121 278.148 69.3848 277.693 69.0029 277.375C68.621 277.011 67.9844 276.692 66.9659 276.283ZM44.4318 264.32L68.0481 275.1C69.2575 275.646 70.0214 276.01 70.5943 276.601C71.1672 277.193 71.4855 277.875 71.4855 278.967V280.195C71.4855 281.923 70.2124 282.287 68.3663 281.923C67.1569 281.696 65.6291 281.014 64.2287 280.422L42.9677 270.734C42.2675 270.415 41.4399 270.006 40.8034 269.551C40.0395 269.005 39.5303 268.368 39.5303 267.55V265.639C39.5303 265.093 39.6576 264.684 39.9759 264.366C40.1668 264.138 40.4851 263.956 40.8034 263.82C41.1217 263.729 41.4399 263.638 41.8219 263.638C42.5858 263.683 43.4769 263.911 44.4318 264.32Z" fill="#393185"/>
<path fill-rule="evenodd" clip-rule="evenodd" d="M87.7174 275.1L111.334 264.32C113.116 263.501 114.707 263.456 114.707 265.048V266.958C114.707 268.141 113.052 268.914 111.716 269.551L90.4546 279.24C87.8447 280.422 84.7256 281.741 84.7256 279.603V278.375C84.7892 276.51 85.5531 276.056 87.7174 275.1Z" fill="#792EED"/>
<path d="M87.2084 274.509L110.825 263.729C111.716 263.319 112.671 263.047 113.435 263.047C113.817 263.047 114.135 263.092 114.453 263.228C114.771 263.365 115.09 263.501 115.281 263.774C115.535 264.093 115.726 264.502 115.726 265.048V266.958C115.726 267.732 115.217 268.414 114.453 268.96C113.817 269.415 112.989 269.824 112.289 270.142L91.0278 279.785C89.6273 280.422 88.1632 281.059 86.8901 281.287C85.0441 281.65 83.771 281.286 83.771 279.558V278.33C83.771 277.238 84.0256 276.556 84.6622 275.965C85.2351 275.419 86.0626 275.055 87.2084 274.509ZM111.843 264.911L88.2269 275.646C87.2084 276.101 86.5718 276.419 86.1899 276.783C85.8716 277.102 85.6807 277.557 85.6807 278.33V279.558C85.6807 279.967 85.9353 280.013 86.3809 279.967C87.3357 279.785 88.7361 279.194 89.9456 278.603L111.207 268.914C111.843 268.641 112.543 268.277 113.053 267.914C113.498 267.595 113.753 267.277 113.753 266.913V265.002C113.753 264.73 113.689 264.593 113.626 264.502L113.562 264.457C113.498 264.457 113.498 264.457 113.371 264.457C113.053 264.457 112.48 264.639 111.843 264.911Z" fill="#393185"/>
<path fill-rule="evenodd" clip-rule="evenodd" d="M217.384 352.29V343.739L263.598 364.117V372.623L217.384 352.29Z" fill="#E0E0E0"/>
<path fill-rule="evenodd" clip-rule="evenodd" d="M269.772 369.848V361.297L217.384 384.995V393.546L269.772 369.848Z" fill="#A1A1A1"/>
<path fill-rule="evenodd" clip-rule="evenodd" d="M217.385 352.29V343.739L171.489 364.253V372.759L217.385 352.29Z" fill="#BDBDBD"/>
<path fill-rule="evenodd" clip-rule="evenodd" d="M165.059 369.848V361.297L217.384 384.995V393.546L165.059 369.848Z" fill="#EDEDED"/>
<path fill-rule="evenodd" clip-rule="evenodd" d="M165.059 361.297L217.448 337.598L269.837 361.297L217.448 384.995L165.059 361.297ZM178.109 361.297L217.448 343.739L256.787 361.297L217.384 378.9L178.109 361.297Z" fill="#D4D4D4"/>
<path fill-rule="evenodd" clip-rule="evenodd" d="M217.384 341.51L175.372 322.36V351.517L217.384 370.712V341.51Z" fill="#DEDEDE"/>
<path fill-rule="evenodd" clip-rule="evenodd" d="M175.372 322.36L217.384 303.165L259.461 322.36L217.384 341.51L175.372 322.36Z" fill="#C2C2C2"/>
<path fill-rule="evenodd" clip-rule="evenodd" d="M217.384 341.51L259.46 322.36V351.517L217.384 370.712V341.51Z" fill="#949494"/>
<path fill-rule="evenodd" clip-rule="evenodd" d="M181.229 322.179L185.939 320.041L190.65 322.179L185.939 324.362L181.229 322.179Z" fill="#792EED"/>
<path fill-rule="evenodd" clip-rule="evenodd" d="M212.101 336.188L216.812 334.05L221.522 336.188L216.812 338.326L212.101 336.188Z" fill="#792EED"/>
<path fill-rule="evenodd" clip-rule="evenodd" d="M212.101 308.214L216.812 306.076L221.522 308.214L216.812 310.352L212.101 308.214Z" fill="#792EED"/>
<path fill-rule="evenodd" clip-rule="evenodd" d="M242.974 322.179L247.685 320.041L252.395 322.179L247.685 324.362L242.974 322.179Z" fill="#792EED"/>
<path fill-rule="evenodd" clip-rule="evenodd" d="M190.649 322.179L216.811 310.352L242.974 322.179L216.811 334.005L190.649 322.179ZM197.205 322.179L216.811 313.4L236.417 322.179L216.811 330.957L197.205 322.179Z" fill="#792EED"/>
<path fill-rule="evenodd" clip-rule="evenodd" d="M207.072 348.56L183.455 337.78C181.673 336.962 180.082 336.916 180.082 338.508V340.418C180.082 341.601 181.737 342.374 183.073 343.011L204.334 352.7C206.944 353.882 210.063 355.201 210.063 353.064V351.836C210.063 349.971 209.236 349.516 207.072 348.56Z" fill="#792EED"/>
<path d="M206.563 349.106L182.947 338.326C182.31 338.053 181.801 337.871 181.419 337.871C181.356 337.871 181.292 337.871 181.228 337.871C181.228 337.871 181.165 337.871 181.165 337.917C181.101 338.008 181.037 338.19 181.037 338.417V340.328C181.037 340.691 181.356 341.055 181.738 341.328C182.247 341.692 182.947 342.056 183.584 342.329L204.845 352.017C206.054 352.563 207.454 353.155 208.409 353.382C208.791 353.473 209.11 353.382 209.11 352.973V351.745C209.11 350.971 208.982 350.516 208.6 350.198C208.218 349.88 207.518 349.561 206.563 349.106ZM183.965 337.189L207.582 347.969C208.791 348.515 209.555 348.879 210.128 349.47C210.701 350.062 211.019 350.744 211.019 351.836V353.064C211.019 354.792 209.746 355.156 207.9 354.792C206.691 354.565 205.163 353.882 203.762 353.291L182.501 343.603C181.801 343.284 180.974 342.875 180.337 342.42C179.573 341.874 179.064 341.237 179.064 340.419V338.508C179.064 337.962 179.191 337.553 179.51 337.234C179.701 337.007 180.019 336.825 180.337 336.689C180.655 336.598 180.974 336.507 181.356 336.507C182.183 336.552 183.074 336.78 183.965 337.189Z" fill="#393185"/>
<path fill-rule="evenodd" clip-rule="evenodd" d="M227.315 347.924L250.931 337.143C252.714 336.325 254.305 336.279 254.305 337.871V339.782C254.305 340.964 252.65 341.738 251.313 342.374L230.116 352.063C227.506 353.246 224.387 354.565 224.387 352.427V351.199C224.323 349.379 225.151 348.924 227.315 347.924Z" fill="#792EED"/>
<path d="M226.806 347.378L250.422 336.598C251.313 336.188 252.268 335.915 253.032 335.915C253.414 335.915 253.732 335.961 254.05 336.097C254.369 336.234 254.687 336.37 254.878 336.643C255.132 336.962 255.323 337.371 255.323 337.917V339.827C255.323 340.6 254.814 341.283 254.05 341.829C253.414 342.283 252.586 342.693 251.886 343.011L230.625 352.7C229.224 353.337 227.76 353.973 226.487 354.201C224.641 354.565 223.368 354.201 223.368 352.472V351.244C223.368 350.153 223.623 349.47 224.259 348.879C224.769 348.288 225.596 347.878 226.806 347.378ZM251.44 337.78L227.824 348.56C226.806 349.015 226.169 349.334 225.787 349.698C225.469 350.016 225.278 350.471 225.278 351.244V352.472C225.278 352.882 225.532 352.927 225.978 352.882C226.933 352.7 228.333 352.108 229.543 351.517L250.804 341.829C251.44 341.556 252.141 341.192 252.65 340.828C253.095 340.509 253.35 340.191 253.35 339.827V337.917C253.35 337.644 253.286 337.507 253.223 337.416L253.159 337.371C253.095 337.371 253.095 337.371 252.968 337.371C252.586 337.325 252.013 337.462 251.44 337.78Z" fill="#393185"/>
<path fill-rule="evenodd" clip-rule="evenodd" d="M370.73 279.422V270.87L416.881 291.248V299.799L370.73 279.422Z" fill="#E0E0E0"/>
<path fill-rule="evenodd" clip-rule="evenodd" d="M423.119 296.979V288.473L370.73 312.172V320.677L423.119 296.979Z" fill="#A1A1A1"/>
<path fill-rule="evenodd" clip-rule="evenodd" d="M370.731 279.422V270.87L324.835 291.384V299.89L370.731 279.422Z" fill="#BDBDBD"/>
<path fill-rule="evenodd" clip-rule="evenodd" d="M318.406 296.979V288.473L370.731 312.172V320.677L318.406 296.979Z" fill="#EDEDED"/>
<path fill-rule="evenodd" clip-rule="evenodd" d="M318.406 288.473L370.795 264.775L423.184 288.473L370.795 312.172L318.406 288.473ZM331.392 288.473L370.731 270.916L410.071 288.473L370.731 306.031L331.392 288.473Z" fill="#D4D4D4"/>
<path fill-rule="evenodd" clip-rule="evenodd" d="M370.731 268.641L328.718 249.492V278.648L370.731 297.843V268.641Z" fill="#DEDEDE"/>
<path fill-rule="evenodd" clip-rule="evenodd" d="M328.718 249.492L370.731 230.342L412.808 249.492L370.731 268.641L328.718 249.492Z" fill="#C2C2C2"/>
<path fill-rule="evenodd" clip-rule="evenodd" d="M370.73 268.641L412.807 249.492V278.648L370.73 297.843V268.641Z" fill="#949494"/>
<path fill-rule="evenodd" clip-rule="evenodd" d="M334.575 249.355L339.286 247.172L343.996 249.355L339.286 251.493L334.575 249.355Z" fill="#792EED"/>
<path fill-rule="evenodd" clip-rule="evenodd" d="M365.448 263.319L370.158 261.182L374.869 263.319L370.158 265.457L365.448 263.319Z" fill="#792EED"/>
<path fill-rule="evenodd" clip-rule="evenodd" d="M365.448 235.345L370.158 233.208L374.869 235.345L370.158 237.529L365.448 235.345Z" fill="#792EED"/>
<path fill-rule="evenodd" clip-rule="evenodd" d="M396.321 249.355L401.031 247.172L405.742 249.355L401.031 251.493L396.321 249.355Z" fill="#792EED"/>
<path fill-rule="evenodd" clip-rule="evenodd" d="M343.996 249.355L370.158 237.529L396.321 249.355L370.158 261.182L343.996 249.355ZM350.552 249.355L370.158 240.576L389.764 249.355L370.158 258.134L350.552 249.355Z" fill="#792EED"/>
<path fill-rule="evenodd" clip-rule="evenodd" d="M360.419 275.692L336.803 264.911C335.021 264.093 333.429 264.047 333.429 265.639V267.55C333.429 268.732 335.084 269.506 336.421 270.142L357.682 279.831C360.292 281.014 363.411 282.333 363.411 280.195V278.967C363.347 277.102 362.584 276.647 360.419 275.692Z" fill="#792EED"/>
<path d="M359.91 276.283L336.294 265.503C335.658 265.23 335.148 265.048 334.766 265.048C334.703 265.048 334.639 265.048 334.575 265.048C334.575 265.048 334.512 265.048 334.512 265.093C334.448 265.184 334.384 265.366 334.384 265.594V267.504C334.384 267.868 334.703 268.232 335.085 268.505C335.594 268.869 336.294 269.233 336.931 269.506L358.192 279.194C359.401 279.74 360.802 280.331 361.756 280.559C362.138 280.65 362.457 280.559 362.457 280.149V278.921C362.457 278.148 362.329 277.693 361.947 277.375C361.565 277.011 360.865 276.692 359.91 276.283ZM337.313 264.32L360.929 275.1C362.138 275.646 362.902 276.01 363.475 276.601C364.048 277.193 364.366 277.875 364.366 278.967V280.195C364.366 281.923 363.093 282.287 361.247 281.923C360.038 281.696 358.51 281.014 357.11 280.422L335.849 270.734C335.148 270.415 334.321 270.006 333.684 269.551C332.92 269.005 332.411 268.368 332.411 267.55V265.639C332.411 265.093 332.538 264.684 332.857 264.366C333.048 264.138 333.366 263.956 333.684 263.82C334.003 263.729 334.321 263.638 334.703 263.638C335.467 263.683 336.421 263.911 337.313 264.32Z" fill="#393185"/>
<path fill-rule="evenodd" clip-rule="evenodd" d="M380.661 275.1L404.278 264.32C406.06 263.501 407.651 263.456 407.651 265.048V266.958C407.651 268.141 405.996 268.914 404.66 269.551L383.398 279.24C380.789 280.422 377.669 281.741 377.669 279.603V278.375C377.669 276.51 378.497 276.056 380.661 275.1Z" fill="#792EED"/>
<path d="M380.089 274.509L403.705 263.729C404.596 263.319 405.551 263.047 406.315 263.047C406.697 263.047 407.015 263.092 407.333 263.228C407.652 263.365 407.97 263.501 408.161 263.774C408.416 264.093 408.607 264.502 408.607 265.048V266.958C408.607 267.732 408.097 268.414 407.333 268.96C406.697 269.415 405.869 269.824 405.169 270.142L383.908 279.831C382.508 280.468 381.044 281.105 379.77 281.332C377.924 281.696 376.651 281.332 376.651 279.604V278.375C376.651 277.284 376.906 276.601 377.543 276.01C378.115 275.419 378.943 275.055 380.089 274.509ZM404.787 264.911L381.171 275.646C380.152 276.101 379.516 276.419 379.134 276.783C378.816 277.102 378.625 277.557 378.625 278.33V279.558C378.625 279.967 378.879 280.013 379.325 279.967C380.28 279.785 381.68 279.194 382.89 278.603L404.151 268.914C404.787 268.641 405.487 268.277 405.997 267.914C406.442 267.595 406.697 267.277 406.697 266.913V265.002C406.697 264.73 406.633 264.593 406.57 264.502L406.506 264.457C406.442 264.457 406.442 264.457 406.315 264.457C405.933 264.457 405.36 264.639 404.787 264.911Z" fill="#393185"/>
<path fill-rule="evenodd" clip-rule="evenodd" d="M128.903 316.538C129.094 316.311 129.285 316.129 129.476 315.901L133.423 317.63C133.232 317.857 133.041 318.039 132.85 318.267C131.513 317.675 130.24 317.084 128.903 316.538ZM122.729 313.036L126.675 314.719C126.484 314.901 126.357 315.083 126.166 315.31L122.22 313.582C122.411 313.4 122.601 313.218 122.729 313.036ZM115.79 309.988L119.737 311.717C119.546 311.899 119.419 312.081 119.291 312.263L115.345 310.534C115.472 310.352 115.599 310.17 115.79 309.988ZM142.08 321.36L146.027 323.088C145.836 323.316 145.645 323.498 145.454 323.725C144.117 323.179 142.844 322.588 141.507 321.997C141.698 321.815 141.889 321.587 142.08 321.36ZM169.07 333.141L173.017 334.869C172.826 335.097 172.635 335.279 172.444 335.506C171.107 334.96 169.834 334.369 168.497 333.777C168.688 333.55 168.879 333.323 169.07 333.141ZM162.386 330.275L166.333 331.958C166.142 332.14 166.015 332.322 165.824 332.549L161.877 330.821C162.068 330.639 162.195 330.457 162.386 330.275ZM135.396 318.494L139.343 320.177C139.152 320.359 139.025 320.541 138.834 320.768L134.887 319.04C135.078 318.904 135.205 318.722 135.396 318.494ZM148.7 324.316L152.647 326.045C152.52 326.227 152.329 326.409 152.201 326.636L148.255 324.908C148.382 324.726 148.509 324.544 148.7 324.316ZM155.384 327.227L159.331 328.956C159.14 329.138 159.013 329.32 158.885 329.502L154.939 327.773C155.066 327.591 155.193 327.409 155.384 327.227Z" fill="white"/>
<path fill-rule="evenodd" clip-rule="evenodd" d="M278.685 239.712C278.876 239.485 279.067 239.303 279.258 239.075L283.141 240.895C282.95 241.122 282.759 241.304 282.568 241.532C281.295 240.895 279.958 240.303 278.685 239.712ZM272.701 236.073L276.584 237.847C276.393 238.029 276.266 238.211 276.075 238.438L272.192 236.619C272.383 236.437 272.51 236.255 272.701 236.073ZM265.827 232.889L269.71 234.709C269.519 234.891 269.391 235.073 269.2 235.254L265.317 233.48C265.508 233.253 265.699 233.071 265.827 232.889ZM291.607 244.852L295.49 246.671C295.299 246.899 295.108 247.081 294.917 247.308C293.644 246.717 292.371 246.126 291.034 245.489C291.289 245.261 291.416 245.079 291.607 244.852ZM318.088 257.224L321.971 259.044C321.78 259.271 321.589 259.453 321.398 259.681C320.125 259.089 318.852 258.498 317.515 257.861C317.706 257.634 317.897 257.406 318.088 257.224ZM311.531 254.222L315.414 255.996C315.224 256.178 315.096 256.36 314.905 256.587L311.022 254.768C311.15 254.586 311.341 254.404 311.531 254.222ZM285.051 241.85L288.934 243.624C288.743 243.806 288.615 243.988 288.424 244.215L284.541 242.396C284.732 242.214 284.86 242.032 285.051 241.85ZM298.1 247.945L301.919 249.765C301.728 249.946 301.601 250.128 301.41 250.31L297.527 248.491C297.782 248.309 297.973 248.127 298.1 247.945ZM304.657 250.993L308.54 252.812C308.349 252.994 308.221 253.176 308.03 253.358L304.147 251.584C304.338 251.357 304.466 251.22 304.657 250.993Z" fill="white"/>
<path fill-rule="evenodd" clip-rule="evenodd" d="M216.811 265.73C217.193 265.73 217.511 265.73 217.893 265.73V269.051C217.511 269.051 217.193 269.051 216.811 269.051C216.811 267.914 216.811 266.822 216.811 265.73ZM217.766 260.135V263.41C217.448 263.41 217.129 263.41 216.811 263.41V260.135C217.129 260.135 217.448 260.135 217.766 260.135ZM217.766 254.268V257.543C217.448 257.543 217.193 257.543 216.875 257.543V254.268C217.129 254.313 217.448 254.268 217.766 254.268ZM217.893 276.283V279.603C217.511 279.603 217.193 279.603 216.811 279.603C216.811 278.512 216.811 277.42 216.811 276.328C217.193 276.283 217.511 276.283 217.893 276.283ZM217.83 293.249V296.524C217.511 296.524 217.193 296.524 216.875 296.524V293.249C217.193 293.295 217.511 293.249 217.83 293.249ZM217.766 270.688V273.963C217.448 273.963 217.129 273.963 216.811 273.963V270.688C217.129 270.688 217.448 270.688 217.766 270.688ZM217.766 281.832V285.107C217.448 285.107 217.129 285.107 216.811 285.107V281.832C217.193 281.832 217.448 281.832 217.766 281.832ZM217.766 287.427V290.702C217.448 290.702 217.193 290.702 216.875 290.702V287.427C217.193 287.427 217.448 287.427 217.766 287.427Z" fill="white"/>
<path fill-rule="evenodd" clip-rule="evenodd" d="M216.62 126.27C217.002 126.27 217.321 126.27 217.702 126.27V129.59C217.321 129.59 217.002 129.59 216.62 129.59C216.557 128.498 216.62 127.407 216.62 126.27ZM217.575 120.72V123.995C217.257 123.995 216.939 123.995 216.62 123.995V120.72C216.939 120.72 217.257 120.72 217.575 120.72ZM217.511 114.853V118.128C217.193 118.128 216.939 118.128 216.62 118.128V114.853C216.939 114.853 217.193 114.853 217.511 114.853ZM217.639 136.822V140.143C217.257 140.143 216.939 140.143 216.557 140.143C216.557 139.051 216.557 137.96 216.557 136.868C216.939 136.868 217.32 136.822 217.639 136.822ZM217.575 131.273V134.548C217.257 134.548 216.939 134.548 216.62 134.548V131.273C216.939 131.273 217.257 131.273 217.575 131.273ZM217.575 142.417V145.692C217.257 145.692 216.939 145.692 216.62 145.692V142.417C216.939 142.417 217.257 142.417 217.575 142.417ZM217.575 148.012V151.287C217.257 151.287 217.002 151.287 216.684 151.287V148.012C217.002 148.012 217.257 148.012 217.575 148.012Z" fill="white"/>
<path fill-rule="evenodd" clip-rule="evenodd" d="M134.632 73.7331L118.59 66.4099V77.554L134.632 84.8772V73.7331Z" fill="#FF6E73"/>
<path fill-rule="evenodd" clip-rule="evenodd" d="M118.59 66.4098L134.632 59.0865L150.737 66.4098L134.632 73.7331L118.59 66.4098Z" fill="#D45D61"/>
<path fill-rule="evenodd" clip-rule="evenodd" d="M134.632 73.7331L150.737 66.4099V77.554L134.632 84.8772V73.7331Z" fill="#BF4C50"/>
<path opacity="0.2" fill-rule="evenodd" clip-rule="evenodd" d="M87.5901 205.734L65.8198 195.818V210.919L87.5901 220.881V205.734Z" fill="#FF8080"/>
<path opacity="0.2" fill-rule="evenodd" clip-rule="evenodd" d="M65.8198 195.818L87.5901 185.902L109.36 195.818L87.5901 205.734L65.8198 195.818Z" fill="#FF8080"/>
<path opacity="0.2" fill-rule="evenodd" clip-rule="evenodd" d="M87.5908 205.734L109.361 195.818V210.919L87.5908 220.881V205.734Z" fill="#FF8080"/>
<path opacity="0.2" fill-rule="evenodd" clip-rule="evenodd" d="M330.374 198.456L308.604 188.54V203.642L330.374 213.558V198.456Z" fill="#FF8080"/>
<path opacity="0.2" fill-rule="evenodd" clip-rule="evenodd" d="M308.604 188.54L330.374 178.624L352.144 188.54L330.374 198.456L308.604 188.54Z" fill="#FF8080"/>
<path opacity="0.2" fill-rule="evenodd" clip-rule="evenodd" d="M330.374 198.456L352.144 188.54V203.642L330.374 213.558V198.456Z" fill="#FF8080"/>
<path opacity="0.2" fill-rule="evenodd" clip-rule="evenodd" d="M285.242 294.932L263.472 285.016V300.118L285.242 310.034V294.932Z" fill="#FF8080"/>
<path opacity="0.2" fill-rule="evenodd" clip-rule="evenodd" d="M263.472 285.016L285.242 275.1L307.012 285.016L285.242 294.932L263.472 285.016Z" fill="#FF8080"/>
<path opacity="0.2" fill-rule="evenodd" clip-rule="evenodd" d="M285.242 294.932L307.012 285.016V300.118L285.242 310.034V294.932Z" fill="#FF8080"/>
<path opacity="0.2" fill-rule="evenodd" clip-rule="evenodd" d="M134.632 73.7331L112.925 63.8171V78.9185L134.632 88.8345V73.7331Z" fill="#FF8080"/>
<path opacity="0.2" fill-rule="evenodd" clip-rule="evenodd" d="M112.925 63.8171L134.632 53.9011L156.402 63.8171L134.632 73.7331L112.925 63.8171Z" fill="#FF8080"/>
<path opacity="0.2" fill-rule="evenodd" clip-rule="evenodd" d="M134.632 73.7331L156.402 63.8171V78.9185L134.632 88.8345V73.7331Z" fill="#FF8080"/>
<path opacity="0.2" fill-rule="evenodd" clip-rule="evenodd" d="M189.185 146.102L171.998 138.278V150.241L189.185 158.064V146.102Z" fill="#97F8FF"/>
<path opacity="0.2" fill-rule="evenodd" clip-rule="evenodd" d="M171.998 138.278L189.185 130.409L206.435 138.278L189.185 146.102L171.998 138.278Z" fill="#97F8FF"/>
<path opacity="0.2" fill-rule="evenodd" clip-rule="evenodd" d="M189.186 146.102L206.436 138.278V150.241L189.186 158.064V146.102Z" fill="#97F8FF"/>
<path opacity="0.2" fill-rule="evenodd" clip-rule="evenodd" d="M245.393 145.601L228.206 137.732V149.695L245.393 157.564V145.601Z" fill="#97F8FF"/>
<path opacity="0.2" fill-rule="evenodd" clip-rule="evenodd" d="M228.206 137.732L245.393 129.909L262.644 137.732L245.393 145.601L228.206 137.732Z" fill="#97F8FF"/>
<path opacity="0.2" fill-rule="evenodd" clip-rule="evenodd" d="M245.393 145.601L262.644 137.732V149.695L245.393 157.564V145.601Z" fill="#97F8FF"/>
<path opacity="0.2" fill-rule="evenodd" clip-rule="evenodd" d="M188.803 254.313L171.553 246.49V258.452L188.803 266.276V254.313Z" fill="#97F8FF"/>
<path opacity="0.2" fill-rule="evenodd" clip-rule="evenodd" d="M171.553 246.49L188.803 238.62L205.991 246.49L188.803 254.313L171.553 246.49Z" fill="#97F8FF"/>
<path opacity="0.2" fill-rule="evenodd" clip-rule="evenodd" d="M188.804 254.313L205.991 246.49V258.452L188.804 266.276V254.313Z" fill="#97F8FF"/>
<path fill-rule="evenodd" clip-rule="evenodd" d="M330.373 198.411L314.269 191.087V202.232L330.373 209.6V198.411Z" fill="#FF6E73"/>
<path fill-rule="evenodd" clip-rule="evenodd" d="M314.269 191.087L330.373 183.764L346.415 191.087L330.373 198.411L314.269 191.087Z" fill="#D45D61"/>
<path fill-rule="evenodd" clip-rule="evenodd" d="M330.374 198.411L346.415 191.087V202.232L330.374 209.6V198.411Z" fill="#BF4C50"/>
<path fill-rule="evenodd" clip-rule="evenodd" d="M87.5898 205.734L71.4849 198.411V209.6L87.5898 216.924V205.734Z" fill="#FF6E73"/>
<path fill-rule="evenodd" clip-rule="evenodd" d="M71.4849 198.411L87.5898 191.087L103.631 198.411L87.5898 205.734L71.4849 198.411Z" fill="#D45D61"/>
<path fill-rule="evenodd" clip-rule="evenodd" d="M87.5908 205.734L103.632 198.411V209.6L87.5908 216.924V205.734Z" fill="#BF4C50"/>
<path fill-rule="evenodd" clip-rule="evenodd" d="M285.241 294.932L269.2 287.609V298.799L285.241 306.122V294.932Z" fill="#FF6E73"/>
<path fill-rule="evenodd" clip-rule="evenodd" d="M269.2 287.609L285.241 280.286L301.346 287.609L285.241 294.932L269.2 287.609Z" fill="#D45D61"/>
<path fill-rule="evenodd" clip-rule="evenodd" d="M285.242 294.932L301.347 287.609V298.799L285.242 306.122V294.932Z" fill="#BF4C50"/>
<path fill-rule="evenodd" clip-rule="evenodd" d="M189.185 146.102L176.899 140.507V149.058L189.185 154.653V146.102Z" fill="#96CEFF"/>
<path fill-rule="evenodd" clip-rule="evenodd" d="M176.899 140.507L189.185 134.867L201.534 140.507L189.185 146.102L176.899 140.507Z" fill="#72AADB"/>
<path fill-rule="evenodd" clip-rule="evenodd" d="M189.186 146.102L201.535 140.507V149.058L189.186 154.653V146.102Z" fill="#588CBA"/>
<path fill-rule="evenodd" clip-rule="evenodd" d="M245.393 145.601L233.108 140.006V148.558L245.393 154.153V145.601Z" fill="#96CEFF"/>
<path fill-rule="evenodd" clip-rule="evenodd" d="M233.108 140.006L245.393 134.366L257.743 140.006L245.393 145.601L233.108 140.006Z" fill="#72AADB"/>
<path fill-rule="evenodd" clip-rule="evenodd" d="M245.393 145.601L257.742 140.006V148.558L245.393 154.153V145.601Z" fill="#588CBA"/>
<path fill-rule="evenodd" clip-rule="evenodd" d="M188.803 254.313L176.454 248.718V257.27L188.803 262.865V254.313Z" fill="#96CEFF"/>
<path fill-rule="evenodd" clip-rule="evenodd" d="M176.454 248.718L188.803 243.078L201.089 248.718L188.803 254.313L176.454 248.718Z" fill="#72AADB"/>
<path fill-rule="evenodd" clip-rule="evenodd" d="M188.804 254.313L201.089 248.718V257.27L188.804 262.865V254.313Z" fill="#588CBA"/>
<path fill-rule="evenodd" clip-rule="evenodd" d="M183.902 203.05L181.292 201.822V203.687L183.902 204.87V203.05Z" fill="#96CEFF"/>
<path fill-rule="evenodd" clip-rule="evenodd" d="M181.292 201.822L183.902 200.639L186.575 201.822L183.902 203.05L181.292 201.822Z" fill="#72AADB"/>
<path fill-rule="evenodd" clip-rule="evenodd" d="M183.902 203.05L186.575 201.822V203.687L183.902 204.87V203.05Z" fill="#588CBA"/>
<path fill-rule="evenodd" clip-rule="evenodd" d="M183.838 197.91L181.229 196.682V198.502L183.838 199.73V197.91Z" fill="#96CEFF"/>
<path fill-rule="evenodd" clip-rule="evenodd" d="M181.229 196.682L183.838 195.5L186.448 196.682L183.838 197.91L181.229 196.682Z" fill="#72AADB"/>
<path fill-rule="evenodd" clip-rule="evenodd" d="M183.838 197.91L186.448 196.682V198.502L183.838 199.73V197.91Z" fill="#588CBA"/>
<path fill-rule="evenodd" clip-rule="evenodd" d="M183.775 192.725L181.101 191.542V193.362L183.775 194.59V192.725Z" fill="#96CEFF"/>
<path fill-rule="evenodd" clip-rule="evenodd" d="M181.101 191.542L183.775 190.36L186.384 191.542L183.775 192.725L181.101 191.542Z" fill="#72AADB"/>
<path fill-rule="evenodd" clip-rule="evenodd" d="M183.774 192.725L186.384 191.542V193.362L183.774 194.59V192.725Z" fill="#588CBA"/>
<path fill-rule="evenodd" clip-rule="evenodd" d="M183.71 187.585L181.037 186.402V188.222L183.71 189.404V187.585Z" fill="#96CEFF"/>
<path fill-rule="evenodd" clip-rule="evenodd" d="M181.037 186.402L183.71 185.174L186.32 186.402L183.71 187.585L181.037 186.402Z" fill="#72AADB"/>
<path fill-rule="evenodd" clip-rule="evenodd" d="M183.711 187.585L186.321 186.402V188.222L183.711 189.404V187.585Z" fill="#588CBA"/>
<path fill-rule="evenodd" clip-rule="evenodd" d="M191.414 206.371L188.804 205.188V207.008L191.414 208.19V206.371Z" fill="#96CEFF"/>
<path fill-rule="evenodd" clip-rule="evenodd" d="M188.804 205.188L191.414 203.96L194.023 205.188L191.414 206.371L188.804 205.188Z" fill="#72AADB"/>
<path fill-rule="evenodd" clip-rule="evenodd" d="M191.413 206.371L194.022 205.188V207.008L191.413 208.19V206.371Z" fill="#588CBA"/>
<path fill-rule="evenodd" clip-rule="evenodd" d="M191.349 201.231L188.675 200.003V201.868L191.349 203.05V201.231Z" fill="#96CEFF"/>
<path fill-rule="evenodd" clip-rule="evenodd" d="M188.675 200.003L191.349 198.82L193.959 200.003L191.349 201.231L188.675 200.003Z" fill="#72AADB"/>
<path fill-rule="evenodd" clip-rule="evenodd" d="M191.35 201.231L193.96 200.003V201.868L191.35 203.05V201.231Z" fill="#588CBA"/>
<path fill-rule="evenodd" clip-rule="evenodd" d="M191.285 196.091L188.611 194.863V196.682L191.285 197.91V196.091Z" fill="#96CEFF"/>
<path fill-rule="evenodd" clip-rule="evenodd" d="M188.611 194.863L191.285 193.68L193.895 194.863L191.285 196.091L188.611 194.863Z" fill="#72AADB"/>
<path fill-rule="evenodd" clip-rule="evenodd" d="M191.286 196.091L193.896 194.863V196.682L191.286 197.91V196.091Z" fill="#588CBA"/>
<path fill-rule="evenodd" clip-rule="evenodd" d="M191.158 190.905L188.548 189.723V191.542L191.158 192.77V190.905Z" fill="#96CEFF"/>
<path fill-rule="evenodd" clip-rule="evenodd" d="M188.548 189.723L191.158 188.54L193.832 189.723L191.158 190.905L188.548 189.723Z" fill="#72AADB"/>
<path fill-rule="evenodd" clip-rule="evenodd" d="M191.158 190.905L193.832 189.723V191.542L191.158 192.77V190.905Z" fill="#588CBA"/>
<path fill-rule="evenodd" clip-rule="evenodd" d="M198.797 209.964L196.188 208.736V210.555L198.797 211.784V209.964Z" fill="#96CEFF"/>
<path fill-rule="evenodd" clip-rule="evenodd" d="M196.188 208.736L198.797 207.553L201.471 208.736L198.797 209.964L196.188 208.736Z" fill="#72AADB"/>
<path fill-rule="evenodd" clip-rule="evenodd" d="M198.797 209.964L201.47 208.736V210.555L198.797 211.784V209.964Z" fill="#588CBA"/>
<path fill-rule="evenodd" clip-rule="evenodd" d="M198.733 204.779L196.123 203.596V205.416L198.733 206.644V204.779Z" fill="#96CEFF"/>
<path fill-rule="evenodd" clip-rule="evenodd" d="M196.123 203.596L198.733 202.413L201.343 203.596L198.733 204.779L196.123 203.596Z" fill="#72AADB"/>
<path fill-rule="evenodd" clip-rule="evenodd" d="M198.733 204.779L201.343 203.596V205.416L198.733 206.644V204.779Z" fill="#588CBA"/>
<path fill-rule="evenodd" clip-rule="evenodd" d="M198.669 199.639L195.996 198.456V200.276L198.669 201.458V199.639Z" fill="#96CEFF"/>
<path fill-rule="evenodd" clip-rule="evenodd" d="M195.996 198.456L198.669 197.228L201.279 198.456L198.669 199.639L195.996 198.456Z" fill="#72AADB"/>
<path fill-rule="evenodd" clip-rule="evenodd" d="M198.67 199.639L201.28 198.456V200.276L198.67 201.458V199.639Z" fill="#588CBA"/>
<path fill-rule="evenodd" clip-rule="evenodd" d="M198.606 194.499L195.932 193.271V195.136L198.606 196.318V194.499Z" fill="#96CEFF"/>
<path fill-rule="evenodd" clip-rule="evenodd" d="M195.932 193.271L198.606 192.088L201.216 193.271L198.606 194.499L195.932 193.271Z" fill="#72AADB"/>
<path fill-rule="evenodd" clip-rule="evenodd" d="M198.606 194.499L201.216 193.271V195.136L198.606 196.318V194.499Z" fill="#588CBA"/>
<path fill-rule="evenodd" clip-rule="evenodd" d="M205.863 213.057L203.253 211.875V213.694L205.863 214.922V213.057Z" fill="#96CEFF"/>
<path fill-rule="evenodd" clip-rule="evenodd" d="M203.253 211.875L205.863 210.646L208.536 211.875L205.863 213.057L203.253 211.875Z" fill="#72AADB"/>
<path fill-rule="evenodd" clip-rule="evenodd" d="M205.862 213.057L208.536 211.875V213.694L205.862 214.922V213.057Z" fill="#588CBA"/>
<path fill-rule="evenodd" clip-rule="evenodd" d="M205.799 207.917L203.189 206.735V208.554L205.799 209.737V207.917Z" fill="#96CEFF"/>
<path fill-rule="evenodd" clip-rule="evenodd" d="M203.189 206.735L205.799 205.507L208.473 206.735L205.799 207.917L203.189 206.735Z" fill="#72AADB"/>
<path fill-rule="evenodd" clip-rule="evenodd" d="M205.799 207.917L208.472 206.735V208.554L205.799 209.737V207.917Z" fill="#588CBA"/>
<path fill-rule="evenodd" clip-rule="evenodd" d="M205.735 202.777L203.125 201.549V203.414L205.735 204.597V202.777Z" fill="#96CEFF"/>
<path fill-rule="evenodd" clip-rule="evenodd" d="M203.125 201.549L205.735 200.367L208.409 201.549L205.735 202.777L203.125 201.549Z" fill="#72AADB"/>
<path fill-rule="evenodd" clip-rule="evenodd" d="M205.735 202.777L208.409 201.549V203.414L205.735 204.597V202.777Z" fill="#588CBA"/>
<path fill-rule="evenodd" clip-rule="evenodd" d="M205.672 197.637L203.062 196.409V198.229L205.672 199.457V197.637Z" fill="#96CEFF"/>
<path fill-rule="evenodd" clip-rule="evenodd" d="M203.062 196.409L205.672 195.227L208.282 196.409L205.672 197.637L203.062 196.409Z" fill="#72AADB"/>
<path fill-rule="evenodd" clip-rule="evenodd" d="M205.672 197.637L208.282 196.409V198.229L205.672 199.457V197.637Z" fill="#588CBA"/>
<path fill-rule="evenodd" clip-rule="evenodd" d="M222.668 197.41L254.496 182.9V204.688L222.668 219.152V197.41Z" fill="#393185"/>
<path fill-rule="evenodd" clip-rule="evenodd" d="M250.294 203.642L252.904 202.413V204.278L250.294 205.461V203.642Z" fill="#96CEFF"/>
<path fill-rule="evenodd" clip-rule="evenodd" d="M252.904 202.413L250.294 201.231L247.685 202.413L250.294 203.642L252.904 202.413Z" fill="#72AADB"/>
<path fill-rule="evenodd" clip-rule="evenodd" d="M250.294 203.642L247.685 202.413V204.278L250.294 205.461V203.642Z" fill="#588CBA"/>
<path fill-rule="evenodd" clip-rule="evenodd" d="M250.358 198.502L253.031 197.274V199.093L250.358 200.321V198.502Z" fill="#96CEFF"/>
<path fill-rule="evenodd" clip-rule="evenodd" d="M253.031 197.274L250.358 196.091L247.748 197.274L250.358 198.502L253.031 197.274Z" fill="#72AADB"/>
<path fill-rule="evenodd" clip-rule="evenodd" d="M250.358 198.502L247.748 197.274V199.093L250.358 200.321V198.502Z" fill="#588CBA"/>
<path fill-rule="evenodd" clip-rule="evenodd" d="M250.421 193.316L253.095 192.134V193.953L250.421 195.181V193.316Z" fill="#96CEFF"/>
<path fill-rule="evenodd" clip-rule="evenodd" d="M253.095 192.134L250.421 190.951L247.812 192.134L250.421 193.316L253.095 192.134Z" fill="#72AADB"/>
<path fill-rule="evenodd" clip-rule="evenodd" d="M250.421 193.316L247.812 192.134V193.953L250.421 195.181V193.316Z" fill="#588CBA"/>
<path fill-rule="evenodd" clip-rule="evenodd" d="M250.549 188.176L253.159 186.994V188.813L250.549 189.996V188.176Z" fill="#96CEFF"/>
<path fill-rule="evenodd" clip-rule="evenodd" d="M253.159 186.994L250.55 185.766L247.876 186.994L250.55 188.176L253.159 186.994Z" fill="#72AADB"/>
<path fill-rule="evenodd" clip-rule="evenodd" d="M250.55 188.176L247.876 186.994V188.813L250.55 189.996V188.176Z" fill="#588CBA"/>
<path fill-rule="evenodd" clip-rule="evenodd" d="M242.783 206.962L245.457 205.779V207.599L242.783 208.782V206.962Z" fill="#96CEFF"/>
<path fill-rule="evenodd" clip-rule="evenodd" d="M245.457 205.779L242.783 204.551L240.173 205.779L242.783 206.962L245.457 205.779Z" fill="#72AADB"/>
<path fill-rule="evenodd" clip-rule="evenodd" d="M242.783 206.962L240.173 205.779V207.599L242.783 208.782V206.962Z" fill="#588CBA"/>
<path fill-rule="evenodd" clip-rule="evenodd" d="M242.847 201.822L245.52 200.594V202.459L242.847 203.642V201.822Z" fill="#96CEFF"/>
<path fill-rule="evenodd" clip-rule="evenodd" d="M245.52 200.594L242.847 199.411L240.237 200.594L242.847 201.822L245.52 200.594Z" fill="#72AADB"/>
<path fill-rule="evenodd" clip-rule="evenodd" d="M242.847 201.822L240.237 200.594V202.459L242.847 203.642V201.822Z" fill="#588CBA"/>
<path fill-rule="evenodd" clip-rule="evenodd" d="M242.974 196.682L245.584 195.454V197.274L242.974 198.502V196.682Z" fill="#96CEFF"/>
<path fill-rule="evenodd" clip-rule="evenodd" d="M245.584 195.454L242.974 194.271L240.3 195.454L242.974 196.682L245.584 195.454Z" fill="#72AADB"/>
<path fill-rule="evenodd" clip-rule="evenodd" d="M242.974 196.682L240.3 195.454V197.274L242.974 198.502V196.682Z" fill="#588CBA"/>
<path fill-rule="evenodd" clip-rule="evenodd" d="M243.038 191.497L245.647 190.314V192.134L243.038 193.362V191.497Z" fill="#96CEFF"/>
<path fill-rule="evenodd" clip-rule="evenodd" d="M245.647 190.314L243.037 189.131L240.364 190.314L243.037 191.497L245.647 190.314Z" fill="#72AADB"/>
<path fill-rule="evenodd" clip-rule="evenodd" d="M243.037 191.497L240.364 190.314V192.134L243.037 193.362V191.497Z" fill="#588CBA"/>
<path fill-rule="evenodd" clip-rule="evenodd" d="M235.399 210.556L238.009 209.327V211.147L235.399 212.375V210.556Z" fill="#96CEFF"/>
<path fill-rule="evenodd" clip-rule="evenodd" d="M238.009 209.327L235.399 208.145L232.789 209.327L235.399 210.555L238.009 209.327Z" fill="#72AADB"/>
<path fill-rule="evenodd" clip-rule="evenodd" d="M235.399 210.556L232.789 209.327V211.147L235.399 212.375V210.556Z" fill="#588CBA"/>
<path fill-rule="evenodd" clip-rule="evenodd" d="M235.462 205.37L238.136 204.187V206.007L235.462 207.235V205.37Z" fill="#96CEFF"/>
<path fill-rule="evenodd" clip-rule="evenodd" d="M238.135 204.187L235.462 203.005L232.852 204.187L235.462 205.37L238.135 204.187Z" fill="#72AADB"/>
<path fill-rule="evenodd" clip-rule="evenodd" d="M235.462 205.37L232.852 204.187V206.007L235.462 207.235V205.37Z" fill="#588CBA"/>
<path fill-rule="evenodd" clip-rule="evenodd" d="M235.526 200.23L238.2 199.047V200.867L235.526 202.05V200.23Z" fill="#96CEFF"/>
<path fill-rule="evenodd" clip-rule="evenodd" d="M238.199 199.047L235.526 197.819L232.916 199.047L235.526 200.23L238.199 199.047Z" fill="#72AADB"/>
<path fill-rule="evenodd" clip-rule="evenodd" d="M235.526 200.23L232.916 199.047V200.867L235.526 202.05V200.23Z" fill="#588CBA"/>
<path fill-rule="evenodd" clip-rule="evenodd" d="M235.654 195.09L238.264 193.908V195.727L235.654 196.91V195.09Z" fill="#96CEFF"/>
<path fill-rule="evenodd" clip-rule="evenodd" d="M238.264 193.908L235.654 192.679L232.98 193.908L235.654 195.09L238.264 193.908Z" fill="#72AADB"/>
<path fill-rule="evenodd" clip-rule="evenodd" d="M235.654 195.09L232.98 193.908V195.727L235.654 196.91V195.09Z" fill="#588CBA"/>
<path fill-rule="evenodd" clip-rule="evenodd" d="M228.333 213.649L230.943 212.466V214.285L228.333 215.513V213.649Z" fill="#96CEFF"/>
<path fill-rule="evenodd" clip-rule="evenodd" d="M230.944 212.466L228.334 211.283L225.66 212.466L228.334 213.649L230.944 212.466Z" fill="#72AADB"/>
<path fill-rule="evenodd" clip-rule="evenodd" d="M228.334 213.649L225.66 212.466V214.285L228.334 215.513V213.649Z" fill="#588CBA"/>
<path fill-rule="evenodd" clip-rule="evenodd" d="M228.397 208.509L231.007 207.326V209.145L228.397 210.328V208.509Z" fill="#96CEFF"/>
<path fill-rule="evenodd" clip-rule="evenodd" d="M231.007 207.326L228.397 206.098L225.788 207.326L228.397 208.509L231.007 207.326Z" fill="#72AADB"/>
<path fill-rule="evenodd" clip-rule="evenodd" d="M228.397 208.509L225.788 207.326V209.145L228.397 210.328V208.509Z" fill="#588CBA"/>
<path fill-rule="evenodd" clip-rule="evenodd" d="M228.461 203.369L231.134 202.186V204.005L228.461 205.188V203.369Z" fill="#96CEFF"/>
<path fill-rule="evenodd" clip-rule="evenodd" d="M231.134 202.186L228.46 200.958L225.851 202.186L228.46 203.369L231.134 202.186Z" fill="#72AADB"/>
<path fill-rule="evenodd" clip-rule="evenodd" d="M228.46 203.369L225.851 202.186V204.005L228.46 205.188V203.369Z" fill="#588CBA"/>
<path fill-rule="evenodd" clip-rule="evenodd" d="M228.524 198.229L231.198 197.001V198.866L228.524 200.048V198.229Z" fill="#96CEFF"/>
<path fill-rule="evenodd" clip-rule="evenodd" d="M231.198 197.001L228.524 195.818L225.915 197.001L228.524 198.229L231.198 197.001Z" fill="#72AADB"/>
<path fill-rule="evenodd" clip-rule="evenodd" d="M228.524 198.229L225.915 197.001V198.866L228.524 200.048V198.229Z" fill="#588CBA"/>
<path fill-rule="evenodd" clip-rule="evenodd" d="M194.341 176.35C196.06 175.577 197.778 174.803 199.497 174.03C201.216 173.257 202.934 172.484 204.653 171.71C205.162 171.483 205.672 171.255 206.181 171.028C207.327 171.574 208.536 172.074 209.682 172.62C208.6 173.12 207.518 173.575 206.435 174.076C205.035 174.712 203.571 175.349 202.17 176.031C200.77 176.668 199.306 177.305 197.906 177.987C196.696 177.442 195.487 176.896 194.341 176.35Z" fill="#FDCD51"/>
<path fill-rule="evenodd" clip-rule="evenodd" d="M200.643 179.216C201.853 178.67 203.062 178.124 204.208 177.578C205.417 177.032 206.627 176.486 207.773 175.94C209.3 175.258 210.828 174.576 212.356 173.848C213.502 174.394 214.711 174.894 215.857 175.44C214.775 175.895 213.756 176.395 212.674 176.85C211.592 177.305 210.573 177.805 209.491 178.26C207.645 179.079 205.863 179.898 204.017 180.717C202.998 180.262 201.789 179.761 200.643 179.216Z" fill="#FF9642"/>
<path fill-rule="evenodd" clip-rule="evenodd" d="M206.944 182.081C208.918 181.171 210.891 180.307 212.801 179.397C214.774 178.488 216.747 177.623 218.721 176.714C219.866 177.26 221.076 177.76 222.222 178.306C220.63 179.034 219.103 179.716 217.511 180.444C215.92 181.171 214.392 181.854 212.801 182.581C212.037 182.945 211.209 183.309 210.445 183.628C209.3 183.127 208.154 182.581 206.944 182.081Z" fill="#D4DAF2"/>
<path fill-rule="evenodd" clip-rule="evenodd" d="M213.247 184.901C213.565 184.765 213.883 184.583 214.265 184.446C216.047 183.628 217.83 182.809 219.676 181.99C221.458 181.171 223.241 180.353 225.087 179.534C226.232 180.08 227.442 180.58 228.588 181.126C226.614 182.036 224.641 182.9 222.731 183.81C220.758 184.719 218.785 185.584 216.875 186.493C215.602 185.993 214.456 185.447 213.247 184.901Z" fill="#FF0037"/>
<path fill-rule="evenodd" clip-rule="evenodd" d="M208.792 169.845C209.746 169.39 210.765 168.981 211.72 168.526C212.865 169.072 214.075 169.572 215.221 170.118C214.266 170.573 213.247 170.982 212.293 171.437C211.147 170.892 210.001 170.391 208.792 169.845Z" fill="#FF9642"/>
<path fill-rule="evenodd" clip-rule="evenodd" d="M215.093 172.711C216.048 172.256 217.066 171.847 218.021 171.392C219.167 171.938 220.376 172.438 221.522 172.984C220.567 173.439 219.549 173.848 218.594 174.303C217.448 173.757 216.302 173.211 215.093 172.711Z" fill="#FDCD51"/>
<path fill-rule="evenodd" clip-rule="evenodd" d="M221.458 175.531C222.413 175.076 223.432 174.667 224.387 174.212C225.532 174.758 226.742 175.258 227.888 175.804C226.933 176.259 225.914 176.668 224.96 177.123C223.75 176.623 222.604 176.077 221.458 175.531Z" fill="#FF9642"/>
<path fill-rule="evenodd" clip-rule="evenodd" d="M227.761 178.397C228.716 177.942 229.734 177.533 230.689 177.078C231.835 177.624 233.044 178.124 234.19 178.67C233.235 179.125 232.217 179.534 231.262 179.989C230.052 179.488 228.907 178.943 227.761 178.397Z" fill="#8DD0FB"/>
<path fill-rule="evenodd" clip-rule="evenodd" d="M213.947 167.526C214.902 167.071 215.856 166.661 216.875 166.206C218.021 166.752 219.23 167.253 220.376 167.798C219.421 168.253 218.403 168.663 217.448 169.118C216.238 168.572 215.093 168.026 213.947 167.526Z" fill="#8DD0FB"/>
<path fill-rule="evenodd" clip-rule="evenodd" d="M220.249 170.346C221.204 169.891 222.222 169.482 223.177 169.027C224.323 169.572 225.532 170.073 226.678 170.619C225.723 171.074 224.705 171.483 223.75 171.938C222.541 171.437 221.395 170.892 220.249 170.346Z" fill="#8DD0FB"/>
<path fill-rule="evenodd" clip-rule="evenodd" d="M226.551 173.211C227.506 172.756 228.524 172.347 229.479 171.892C230.625 172.438 231.834 172.938 232.98 173.484C232.025 173.939 231.007 174.348 230.052 174.803C228.906 174.258 227.697 173.757 226.551 173.211Z" fill="#D4DAF2"/>
<path fill-rule="evenodd" clip-rule="evenodd" d="M232.852 176.077C233.807 175.622 234.825 175.213 235.78 174.758C236.926 175.304 238.135 175.804 239.281 176.35C238.326 176.805 237.308 177.214 236.353 177.669C235.207 177.123 233.998 176.577 232.852 176.077Z" fill="#FDCD51"/>
<path fill-rule="evenodd" clip-rule="evenodd" d="M122.091 66.2734C123.046 65.864 123.937 65.4546 124.892 64.9997C125.847 64.5904 126.738 64.181 127.693 63.7261C127.948 63.5897 128.202 63.4987 128.521 63.3622C129.157 63.6352 129.794 63.9536 130.43 64.2265C129.857 64.4994 129.284 64.7723 128.712 64.9997C127.948 65.3636 127.184 65.682 126.42 66.0459C125.656 66.4098 124.892 66.7282 124.128 67.0921C123.364 66.8647 122.728 66.5918 122.091 66.2734Z" fill="#FDCD51"/>
<path fill-rule="evenodd" clip-rule="evenodd" d="M125.529 67.8199C126.166 67.547 126.802 67.2286 127.439 66.9557C128.076 66.6828 128.712 66.3644 129.412 66.0914C130.24 65.7275 131.067 65.3637 131.895 64.9543C132.531 65.2272 133.168 65.5456 133.805 65.8185C133.232 66.0914 132.659 66.3189 132.086 66.5918C131.513 66.8647 130.94 67.0921 130.367 67.3651C129.412 67.8199 128.394 68.2748 127.439 68.6841C126.802 68.4112 126.166 68.1383 125.529 67.8199Z" fill="#FF9642"/>
<path fill-rule="evenodd" clip-rule="evenodd" d="M128.903 69.3664C129.985 68.8661 131.003 68.4112 132.086 67.9109C133.168 67.4105 134.186 66.9557 135.268 66.4553C135.905 66.7282 136.542 67.0466 137.178 67.3196C136.351 67.6834 135.459 68.0928 134.632 68.4567C133.804 68.8206 132.913 69.23 132.086 69.5939C131.64 69.7758 131.258 69.9578 130.813 70.1852C130.176 69.9578 129.539 69.6848 128.903 69.3664Z" fill="#D4DAF2"/>
<path fill-rule="evenodd" clip-rule="evenodd" d="M132.34 70.913C132.531 70.822 132.722 70.731 132.85 70.6856C133.804 70.2307 134.823 69.8213 135.778 69.3665C136.733 68.9116 137.751 68.5022 138.706 68.0474C139.342 68.3203 139.979 68.6387 140.616 68.9116C139.533 69.4119 138.515 69.8668 137.433 70.3672C136.351 70.8675 135.332 71.3224 134.25 71.8227C133.613 71.5043 132.977 71.1859 132.34 70.913Z" fill="#FF0037"/>
<path fill-rule="evenodd" clip-rule="evenodd" d="M129.921 62.7709C130.431 62.5435 131.004 62.3161 131.513 62.0432C132.149 62.3161 132.786 62.6345 133.422 62.9074C132.913 63.1348 132.34 63.3623 131.831 63.6352C131.195 63.3623 130.558 63.0439 129.921 62.7709Z" fill="#FF9642"/>
<path fill-rule="evenodd" clip-rule="evenodd" d="M133.358 64.3175C133.868 64.0901 134.441 63.8626 134.95 63.5897C135.586 63.8626 136.223 64.181 136.859 64.454C136.35 64.6814 135.777 64.9088 135.268 65.1817C134.632 64.9088 133.995 64.5904 133.358 64.3175Z" fill="#FDCD51"/>
<path fill-rule="evenodd" clip-rule="evenodd" d="M136.732 65.864C137.242 65.6366 137.815 65.4091 138.324 65.1362C138.96 65.4091 139.597 65.7276 140.233 66.0005C139.724 66.2279 139.151 66.4553 138.642 66.7282C138.006 66.4098 137.369 66.1369 136.732 65.864Z" fill="#FF9642"/>
<path fill-rule="evenodd" clip-rule="evenodd" d="M140.17 67.4105C140.68 67.1831 141.253 66.9557 141.762 66.6827C142.398 66.9557 143.035 67.2741 143.671 67.547C143.162 67.7744 142.589 68.0018 142.08 68.2748C141.444 67.9564 140.807 67.6834 140.17 67.4105Z" fill="#8DD0FB"/>
<path fill-rule="evenodd" clip-rule="evenodd" d="M132.723 61.4973C133.232 61.2699 133.741 61.0424 134.314 60.7695C134.951 61.0424 135.587 61.3608 136.224 61.6338C135.714 61.8612 135.142 62.0886 134.632 62.3615C133.932 62.0886 133.359 61.7702 132.723 61.4973Z" fill="#8DD0FB"/>
<path fill-rule="evenodd" clip-rule="evenodd" d="M136.096 63.0439C136.605 62.8165 137.178 62.589 137.687 62.3161C138.324 62.589 138.96 62.9074 139.597 63.1803C139.088 63.4078 138.515 63.6352 138.005 63.9081C137.369 63.6352 136.732 63.3168 136.096 63.0439Z" fill="#8DD0FB"/>
<path fill-rule="evenodd" clip-rule="evenodd" d="M139.534 64.5904C140.043 64.363 140.616 64.1355 141.125 63.8626C141.762 64.1355 142.398 64.4539 143.035 64.7269C142.526 64.9543 141.953 65.1817 141.443 65.4546C140.807 65.1817 140.17 64.8633 139.534 64.5904Z" fill="#D4DAF2"/>
<path fill-rule="evenodd" clip-rule="evenodd" d="M142.907 66.1369C143.416 65.9095 143.989 65.682 144.499 65.4091C145.135 65.682 145.772 66.0004 146.408 66.2734C145.899 66.5008 145.326 66.7282 144.817 67.0011C144.18 66.7282 143.544 66.4098 142.907 66.1369Z" fill="#FDCD51"/>
<path fill-rule="evenodd" clip-rule="evenodd" d="M75.1138 198.365C76.0686 197.956 76.9598 197.546 77.9146 197.092C78.8695 196.682 79.7606 196.273 80.7155 195.818C80.9701 195.682 81.2247 195.591 81.543 195.454C82.1796 195.727 82.8161 196.045 83.4527 196.318C82.8798 196.591 82.3069 196.864 81.734 197.092C80.9701 197.455 80.2062 197.774 79.4424 198.138C78.6785 198.502 77.9146 198.82 77.1508 199.184C76.3869 198.957 75.7503 198.638 75.1138 198.365Z" fill="#FDCD51"/>
<path fill-rule="evenodd" clip-rule="evenodd" d="M78.5513 199.912C79.1878 199.639 79.8244 199.32 80.4609 199.048C81.0975 198.775 81.7341 198.456 82.4343 198.183C83.2618 197.819 84.0893 197.455 84.9168 197.046C85.5534 197.319 86.19 197.637 86.8265 197.91C86.2536 198.183 85.6807 198.411 85.1078 198.684C84.5349 198.957 83.962 199.184 83.3891 199.457C82.4343 199.912 81.4158 200.367 80.4609 200.776C79.8244 200.503 79.1878 200.185 78.5513 199.912Z" fill="#FF9642"/>
<path fill-rule="evenodd" clip-rule="evenodd" d="M81.9258 201.458C83.0079 200.958 84.0264 200.503 85.1086 200.003C86.1907 199.502 87.2092 199.047 88.2914 198.547C88.9279 198.82 89.5645 199.138 90.201 199.411C89.3735 199.775 88.4823 200.185 87.6548 200.549C86.8273 200.912 85.9361 201.322 85.1086 201.686C84.663 201.868 84.281 202.05 83.8355 202.277C83.1989 202.05 82.5623 201.731 81.9258 201.458Z" fill="#D4DAF2"/>
<path fill-rule="evenodd" clip-rule="evenodd" d="M85.3628 203.005C85.5538 202.914 85.7447 202.823 85.872 202.777C86.8269 202.322 87.8454 201.913 88.8002 201.458C89.755 201.003 90.7735 200.594 91.7284 200.139C92.3649 200.412 93.0015 200.73 93.638 201.003C92.5559 201.504 91.5374 201.959 90.4553 202.459C89.3731 202.959 88.3546 203.414 87.2725 203.915C86.6359 203.596 85.9994 203.278 85.3628 203.005Z" fill="#FF0037"/>
<path fill-rule="evenodd" clip-rule="evenodd" d="M82.9434 194.863C83.4526 194.635 84.0255 194.408 84.5348 194.135C85.1713 194.408 85.8079 194.726 86.4444 194.999C85.9352 195.227 85.3623 195.454 84.853 195.727C84.2165 195.409 83.5799 195.136 82.9434 194.863Z" fill="#FF9642"/>
<path fill-rule="evenodd" clip-rule="evenodd" d="M86.3804 196.409C86.8896 196.182 87.4625 195.954 87.9718 195.682C88.6083 195.954 89.2449 196.273 89.8814 196.546C89.3722 196.773 88.7993 197.001 88.29 197.274C87.6535 196.955 87.0169 196.682 86.3804 196.409Z" fill="#FDCD51"/>
<path fill-rule="evenodd" clip-rule="evenodd" d="M89.7544 197.956C90.2636 197.728 90.8365 197.501 91.3458 197.228C91.9823 197.501 92.6189 197.819 93.2555 198.092C92.7462 198.32 92.1733 198.547 91.6641 198.82C91.0275 198.502 90.391 198.229 89.7544 197.956Z" fill="#FF9642"/>
<path fill-rule="evenodd" clip-rule="evenodd" d="M93.1919 199.457C93.7011 199.229 94.274 199.002 94.7833 198.729C95.4198 199.002 96.0564 199.32 96.693 199.593C96.1837 199.821 95.6108 200.048 95.1016 200.321C94.465 200.048 93.8285 199.775 93.1919 199.457Z" fill="#8DD0FB"/>
<path fill-rule="evenodd" clip-rule="evenodd" d="M85.6807 193.589C86.1899 193.362 86.6992 193.134 87.2721 192.861C87.9086 193.134 88.5452 193.453 89.1817 193.726C88.6725 193.953 88.0996 194.18 87.5903 194.453C86.9538 194.135 86.3172 193.862 85.6807 193.589Z" fill="#8DD0FB"/>
<path fill-rule="evenodd" clip-rule="evenodd" d="M89.1177 195.136C89.6269 194.908 90.1998 194.681 90.7091 194.408C91.3456 194.681 91.9822 194.999 92.6187 195.272C92.1095 195.5 91.5366 195.727 91.0273 196C90.3908 195.682 89.7542 195.409 89.1177 195.136Z" fill="#8DD0FB"/>
<path fill-rule="evenodd" clip-rule="evenodd" d="M92.5552 196.682C93.0644 196.455 93.6373 196.227 94.1466 195.954C94.7831 196.227 95.4197 196.546 96.0562 196.819C95.547 197.046 94.9741 197.274 94.4648 197.546C93.8283 197.228 93.1917 196.955 92.5552 196.682Z" fill="#D4DAF2"/>
<path fill-rule="evenodd" clip-rule="evenodd" d="M95.9292 198.229C96.4384 198.001 97.0113 197.774 97.5206 197.501C98.1572 197.774 98.7937 198.092 99.4303 198.365C98.921 198.593 98.3481 198.82 97.8389 199.093C97.2023 198.775 96.5658 198.502 95.9292 198.229Z" fill="#FDCD51"/>
<path fill-rule="evenodd" clip-rule="evenodd" d="M272.956 287.518C273.911 287.109 274.802 286.699 275.757 286.244C276.712 285.835 277.603 285.426 278.558 284.971C278.812 284.834 279.067 284.743 279.385 284.607C280.022 284.88 280.658 285.198 281.295 285.471C280.722 285.744 280.149 286.017 279.576 286.244C278.812 286.608 278.049 286.927 277.285 287.291C276.521 287.654 275.757 287.973 274.993 288.337C274.229 288.064 273.593 287.791 272.956 287.518Z" fill="#FDCD51"/>
<path fill-rule="evenodd" clip-rule="evenodd" d="M276.394 289.065C277.03 288.792 277.667 288.473 278.303 288.2C278.94 287.927 279.576 287.609 280.277 287.336C281.104 286.972 281.932 286.608 282.759 286.199C283.396 286.472 284.032 286.79 284.669 287.063C284.096 287.336 283.523 287.564 282.95 287.836C282.377 288.109 281.804 288.337 281.231 288.61C280.277 289.065 279.258 289.519 278.303 289.929C277.667 289.61 277.03 289.338 276.394 289.065Z" fill="#FF9642"/>
<path fill-rule="evenodd" clip-rule="evenodd" d="M279.767 290.611C280.849 290.111 281.868 289.656 282.95 289.156C284.032 288.655 285.051 288.2 286.133 287.7C286.769 287.973 287.406 288.291 288.042 288.564C287.215 288.928 286.324 289.338 285.496 289.701C284.669 290.065 283.777 290.475 282.95 290.839C282.504 291.021 282.122 291.202 281.677 291.43C281.04 291.157 280.404 290.884 279.767 290.611Z" fill="#D4DAF2"/>
<path fill-rule="evenodd" clip-rule="evenodd" d="M283.205 292.112C283.396 292.021 283.587 291.93 283.714 291.885C284.669 291.43 285.687 291.02 286.642 290.566C287.597 290.111 288.615 289.701 289.57 289.247C290.207 289.519 290.843 289.838 291.48 290.111C290.398 290.611 289.379 291.066 288.297 291.566C287.215 292.067 286.196 292.522 285.114 293.022C284.478 292.703 283.841 292.431 283.205 292.112Z" fill="#FF0037"/>
<path fill-rule="evenodd" clip-rule="evenodd" d="M280.786 283.97C281.295 283.743 281.868 283.515 282.378 283.242C283.014 283.515 283.651 283.834 284.287 284.107C283.778 284.334 283.205 284.561 282.696 284.834C282.059 284.561 281.423 284.289 280.786 283.97Z" fill="#FF9642"/>
<path fill-rule="evenodd" clip-rule="evenodd" d="M284.223 285.517C284.732 285.289 285.305 285.062 285.815 284.789C286.451 285.062 287.088 285.38 287.724 285.653C287.215 285.881 286.642 286.108 286.133 286.381C285.496 286.108 284.86 285.79 284.223 285.517Z" fill="#FDCD51"/>
<path fill-rule="evenodd" clip-rule="evenodd" d="M287.597 287.063C288.106 286.836 288.679 286.608 289.188 286.335C289.825 286.608 290.461 286.927 291.098 287.2C290.589 287.427 290.016 287.655 289.506 287.927C288.87 287.655 288.233 287.336 287.597 287.063Z" fill="#FF9642"/>
<path fill-rule="evenodd" clip-rule="evenodd" d="M291.035 288.61C291.544 288.382 292.117 288.155 292.626 287.882C293.263 288.155 293.899 288.473 294.536 288.746C294.026 288.974 293.454 289.201 292.944 289.474C292.308 289.201 291.671 288.883 291.035 288.61Z" fill="#8DD0FB"/>
<path fill-rule="evenodd" clip-rule="evenodd" d="M283.586 282.697C284.096 282.469 284.605 282.242 285.178 281.969C285.814 282.242 286.451 282.56 287.087 282.833C286.578 283.06 286.005 283.288 285.496 283.561C284.796 283.288 284.223 283.015 283.586 282.697Z" fill="#8DD0FB"/>
<path fill-rule="evenodd" clip-rule="evenodd" d="M286.96 284.243C287.47 284.016 288.043 283.788 288.552 283.515C289.188 283.788 289.825 284.107 290.462 284.38C289.952 284.607 289.379 284.834 288.87 285.107C288.234 284.834 287.597 284.561 286.96 284.243Z" fill="#8DD0FB"/>
<path fill-rule="evenodd" clip-rule="evenodd" d="M290.398 285.79C290.907 285.562 291.48 285.335 291.989 285.062C292.626 285.335 293.262 285.653 293.899 285.926C293.39 286.153 292.817 286.381 292.308 286.654C291.671 286.381 291.035 286.108 290.398 285.79Z" fill="#D4DAF2"/>
<path fill-rule="evenodd" clip-rule="evenodd" d="M293.771 287.336C294.281 287.109 294.854 286.881 295.363 286.608C295.999 286.881 296.636 287.2 297.273 287.473C296.763 287.7 296.19 287.927 295.681 288.2C295.045 287.927 294.408 287.655 293.771 287.336Z" fill="#FDCD51"/>
<path fill-rule="evenodd" clip-rule="evenodd" d="M318.024 191.133C318.979 190.724 319.87 190.314 320.825 189.859C321.78 189.45 322.671 189.041 323.626 188.586C323.881 188.449 324.135 188.358 324.454 188.222C325.09 188.495 325.727 188.813 326.363 189.086C325.79 189.359 325.218 189.632 324.645 189.859C323.881 190.223 323.117 190.542 322.353 190.905C321.589 191.269 320.825 191.588 320.061 191.952C319.298 191.679 318.661 191.406 318.024 191.133Z" fill="#FDCD51"/>
<path fill-rule="evenodd" clip-rule="evenodd" d="M321.462 192.634C322.098 192.361 322.735 192.043 323.372 191.77C324.008 191.497 324.645 191.178 325.345 190.905C326.172 190.542 327 190.178 327.827 189.768C328.464 190.041 329.101 190.36 329.737 190.633C329.164 190.905 328.591 191.133 328.018 191.406C327.446 191.679 326.873 191.906 326.3 192.179C325.345 192.634 324.326 193.089 323.372 193.498C322.735 193.225 322.098 192.952 321.462 192.634Z" fill="#FF9642"/>
<path fill-rule="evenodd" clip-rule="evenodd" d="M324.899 194.18C325.982 193.68 327 193.225 328.082 192.725C329.164 192.225 330.183 191.77 331.265 191.269C331.902 191.542 332.538 191.861 333.175 192.134C332.347 192.497 331.456 192.907 330.628 193.271C329.801 193.635 328.91 194.044 328.082 194.408C327.637 194.59 327.255 194.772 326.809 194.999C326.173 194.772 325.536 194.499 324.899 194.18Z" fill="#D4DAF2"/>
<path fill-rule="evenodd" clip-rule="evenodd" d="M328.273 195.727C328.464 195.636 328.655 195.545 328.783 195.5C329.738 195.045 330.756 194.635 331.711 194.18C332.666 193.726 333.684 193.316 334.639 192.861C335.276 193.134 335.912 193.453 336.549 193.726C335.467 194.226 334.448 194.681 333.366 195.181C332.284 195.682 331.265 196.136 330.183 196.637C329.547 196.318 328.91 196.045 328.273 195.727Z" fill="#FF0037"/>
<path fill-rule="evenodd" clip-rule="evenodd" d="M325.854 187.585C326.363 187.358 326.936 187.13 327.445 186.857C328.082 187.13 328.719 187.449 329.355 187.721C328.846 187.949 328.273 188.176 327.764 188.449C327.127 188.176 326.491 187.858 325.854 187.585Z" fill="#FF9642"/>
<path fill-rule="evenodd" clip-rule="evenodd" d="M329.291 189.131C329.8 188.904 330.373 188.677 330.882 188.404C331.519 188.677 332.156 188.995 332.792 189.268C332.283 189.495 331.71 189.723 331.201 189.996C330.564 189.723 329.928 189.404 329.291 189.131Z" fill="#FDCD51"/>
<path fill-rule="evenodd" clip-rule="evenodd" d="M332.729 190.678C333.238 190.451 333.811 190.223 334.32 189.95C334.957 190.223 335.594 190.542 336.23 190.814C335.721 191.042 335.148 191.269 334.639 191.542C334.002 191.269 333.366 190.951 332.729 190.678Z" fill="#FF9642"/>
<path fill-rule="evenodd" clip-rule="evenodd" d="M336.103 192.225C336.612 191.997 337.185 191.77 337.694 191.497C338.33 191.77 338.967 192.088 339.604 192.361C339.094 192.588 338.521 192.816 338.012 193.089C337.376 192.816 336.739 192.497 336.103 192.225Z" fill="#8DD0FB"/>
<path fill-rule="evenodd" clip-rule="evenodd" d="M328.654 186.311C329.164 186.084 329.673 185.857 330.246 185.584C330.882 185.857 331.519 186.175 332.155 186.448C331.646 186.675 331.073 186.903 330.564 187.176C329.927 186.903 329.291 186.63 328.654 186.311Z" fill="#8DD0FB"/>
<path fill-rule="evenodd" clip-rule="evenodd" d="M332.029 187.858C332.538 187.63 333.111 187.403 333.62 187.13C334.257 187.403 334.893 187.721 335.53 187.994C335.021 188.222 334.448 188.449 333.938 188.722C333.302 188.449 332.665 188.176 332.029 187.858Z" fill="#8DD0FB"/>
<path fill-rule="evenodd" clip-rule="evenodd" d="M335.466 189.404C335.976 189.177 336.548 188.95 337.058 188.677C337.694 188.95 338.331 189.268 338.967 189.541C338.458 189.768 337.885 189.996 337.376 190.269C336.739 189.996 336.103 189.677 335.466 189.404Z" fill="#D4DAF2"/>
<path fill-rule="evenodd" clip-rule="evenodd" d="M338.903 190.951C339.413 190.723 339.985 190.496 340.495 190.223C341.131 190.496 341.768 190.814 342.404 191.087C341.895 191.315 341.322 191.542 340.813 191.815C340.176 191.542 339.54 191.224 338.903 190.951Z" fill="#FDCD51"/>
<path fill-rule="evenodd" clip-rule="evenodd" d="M60.4095 129.818L36.7932 119.037C35.0108 118.219 33.4194 118.173 33.4194 119.765V121.676C33.4194 122.858 35.0745 123.631 36.4113 124.268L57.6723 133.957C60.2822 135.139 63.4013 136.459 63.4013 134.321V133.093C63.3377 131.228 62.5738 130.818 60.4095 129.818Z" fill="#792EED"/>
<path d="M59.8997 130.409L36.2834 119.674C35.6468 119.401 35.1376 119.219 34.7557 119.219C34.692 119.219 34.6283 119.219 34.5647 119.219C34.5647 119.219 34.501 119.219 34.501 119.265C34.4374 119.356 34.3737 119.538 34.3737 119.765V121.676C34.3737 122.039 34.692 122.403 35.0739 122.676C35.5832 123.04 36.2834 123.404 36.92 123.677L58.181 133.365C59.3904 133.911 60.7909 134.503 61.7457 134.73C62.1276 134.821 62.4459 134.73 62.4459 134.321V133.093C62.4459 132.319 62.3186 131.864 61.9367 131.546C61.5547 131.182 60.8545 130.864 59.8997 130.409ZM37.3019 118.491L60.9182 129.272C62.1276 129.818 62.8915 130.181 63.4644 130.773C64.0373 131.364 64.3556 132.046 64.3556 133.138V134.366C64.3556 136.095 63.0825 136.459 61.2365 136.095C60.027 135.867 58.4993 135.185 57.0988 134.594L35.8378 124.905C35.1376 124.587 34.3101 124.177 33.6735 123.722C32.9096 123.177 32.4004 122.54 32.4004 121.721V119.811C32.4004 119.265 32.5277 118.855 32.846 118.537C33.0369 118.31 33.3552 118.128 33.6735 117.991C33.9918 117.9 34.3101 117.809 34.692 117.809C35.5195 117.809 36.4107 118.082 37.3019 118.491Z" fill="#393185"/>
<path fill-rule="evenodd" clip-rule="evenodd" d="M334.575 243.396V198.547L339.286 200.685V251.584L334.575 249.446V243.396ZM343.996 243.396V198.547L339.286 200.685V251.584L343.996 249.446V243.396Z" fill="url(#paint0_linear_1_6081)"/>
<path fill-rule="evenodd" clip-rule="evenodd" d="M365.448 257.315V212.42L370.158 214.558V265.457L365.448 263.319V257.315ZM374.869 257.315V212.42L370.158 214.558V265.457L374.869 263.319V257.315Z" fill="url(#paint1_linear_1_6081)"/>
<path fill-rule="evenodd" clip-rule="evenodd" d="M396.321 243.306V198.456L401.031 200.594V251.493L396.321 249.355V243.306ZM405.742 243.306V198.456L401.031 200.594V251.493L405.742 249.355V243.306Z" fill="url(#paint2_linear_1_6081)"/>
<path fill-rule="evenodd" clip-rule="evenodd" d="M212.674 184.992V140.143L217.385 142.281V193.18L212.674 191.042V184.992ZM222.159 184.992V140.143L217.449 142.281V193.18L222.159 191.042V184.992Z" fill="url(#paint3_linear_1_6081)"/>
<path fill-rule="evenodd" clip-rule="evenodd" d="M180.782 170.482V125.633L185.493 127.771V178.67L180.782 176.486V170.482ZM190.267 170.482V125.633L185.556 127.771V178.67L190.267 176.532V170.482Z" fill="url(#paint4_linear_1_6081)"/>
<path fill-rule="evenodd" clip-rule="evenodd" d="M212.674 155.927V111.077L217.385 113.215V164.114L212.674 161.976V155.927ZM222.159 155.927V111.077L217.449 113.215V164.114L222.159 161.976V155.927Z" fill="url(#paint5_linear_1_6081)"/>
<path fill-rule="evenodd" clip-rule="evenodd" d="M244.566 170.482V125.633L249.276 127.771V178.67L244.566 176.532V170.482ZM254.051 170.482V125.633L249.34 127.771V178.67L254.051 176.532V170.482Z" fill="url(#paint6_linear_1_6081)"/>
<path fill-rule="evenodd" clip-rule="evenodd" d="M358.319 111.441V66.5918L363.029 68.7297V119.629L358.319 117.491V111.441ZM367.804 111.441V66.5918L363.093 68.7297V119.629L367.804 117.491V111.441Z" fill="url(#paint7_linear_1_6081)"/>
<path fill-rule="evenodd" clip-rule="evenodd" d="M327.445 97.4769V52.6275L332.156 54.7654V105.664L327.445 103.527V97.4769ZM336.93 97.4769V52.6275L332.219 54.7654V105.664L336.93 103.527V97.4769Z" fill="url(#paint8_linear_1_6081)"/>
<path fill-rule="evenodd" clip-rule="evenodd" d="M358.319 83.4671V38.6178L363.029 40.7556V91.6547L358.319 89.5168V83.4671ZM367.804 83.4671V38.6178L363.093 40.7556V91.6547L367.804 89.5168V83.4671Z" fill="url(#paint9_linear_1_6081)"/>
<path fill-rule="evenodd" clip-rule="evenodd" d="M389.191 97.4769V52.6275L393.902 54.7654V105.664L389.191 103.527V97.4769ZM398.612 97.4769V52.6275L393.902 54.7654V105.664L398.612 103.527V97.4769Z" fill="url(#paint10_linear_1_6081)"/>
<path fill-rule="evenodd" clip-rule="evenodd" d="M72.5679 257.27V212.42L77.2784 214.558V265.457L72.5679 263.319V257.27ZM81.9889 257.27V212.42L77.2784 214.558V265.457L81.9889 263.319V257.27Z" fill="url(#paint11_linear_1_6081)"/>
<path fill-rule="evenodd" clip-rule="evenodd" d="M41.6948 243.306V198.456L46.4054 200.594V251.493L41.6948 249.355V243.306ZM51.1159 243.306V198.456L46.4054 200.594V251.493L51.1159 249.355V243.306Z" fill="url(#paint12_linear_1_6081)"/>
<path fill-rule="evenodd" clip-rule="evenodd" d="M72.5679 229.341V184.492L77.2784 186.63V237.529L72.5679 235.391V229.341ZM81.9889 229.341V184.492L77.2784 186.63V237.529L81.9889 235.391V229.341Z" fill="url(#paint13_linear_1_6081)"/>
<path fill-rule="evenodd" clip-rule="evenodd" d="M103.441 243.306V198.456L108.151 200.594V251.493L103.441 249.355V243.306ZM112.862 243.306V198.456L108.151 200.594V251.493L112.862 249.355V243.306Z" fill="url(#paint14_linear_1_6081)"/>
<path fill-rule="evenodd" clip-rule="evenodd" d="M65.4385 111.441V66.5918L70.149 68.7297V119.629L65.4385 117.491V111.441ZM74.8595 111.441V66.5918L70.149 68.7297V119.629L74.8595 117.491V111.441Z" fill="url(#paint15_linear_1_6081)"/>
<path fill-rule="evenodd" clip-rule="evenodd" d="M34.5645 97.4769V52.6275L39.275 54.7654V105.664L34.5645 103.527V97.4769ZM43.9855 97.4769V52.6275L39.275 54.7654V105.664L43.9855 103.527V97.4769Z" fill="url(#paint16_linear_1_6081)"/>
<path fill-rule="evenodd" clip-rule="evenodd" d="M65.4385 83.4671V38.6178L70.149 40.7556V91.6547L65.4385 89.5168V83.4671ZM74.8595 83.4671V38.6178L70.149 40.7556V91.6547L74.8595 89.5168V83.4671Z" fill="url(#paint17_linear_1_6081)"/>
<path fill-rule="evenodd" clip-rule="evenodd" d="M96.3115 97.4769V52.6275L101.022 54.7654V105.664L96.3115 103.527V97.4769ZM105.733 97.4769V52.6275L101.022 54.7654V105.664L105.733 103.527V97.4769Z" fill="url(#paint18_linear_1_6081)"/>
<path fill-rule="evenodd" clip-rule="evenodd" d="M212.101 44.349V0L216.812 2.13785V52.5365L212.101 50.3987V44.349ZM221.522 44.349V0L216.812 2.13785V52.5365L221.522 50.3987V44.349Z" fill="url(#paint19_linear_1_6081)"/>
<path fill-rule="evenodd" clip-rule="evenodd" d="M181.229 30.3848V0.682312L185.939 2.82016V38.5268L181.229 36.389V30.3848ZM190.713 30.3848V0.682312L186.003 2.82016V38.5268L190.713 36.389V30.3848Z" fill="url(#paint20_linear_1_6081)"/>
<path fill-rule="evenodd" clip-rule="evenodd" d="M212.101 16.3751V0.773315L216.812 2.91116V24.5626L212.101 22.4247V16.3751ZM221.522 16.3751V0.773315L216.812 2.91116V24.5626L221.522 22.4247V16.3751Z" fill="url(#paint21_linear_1_6081)"/>
<path fill-rule="evenodd" clip-rule="evenodd" d="M242.974 30.3848V0.682312L247.685 2.82016V38.5268L242.974 36.389V30.3848ZM252.395 30.3848V0.682312L247.685 2.82016V38.5268L252.395 36.389V30.3848Z" fill="url(#paint22_linear_1_6081)"/>
<path fill-rule="evenodd" clip-rule="evenodd" d="M212.101 330.139V285.289L216.812 287.427V338.326L212.101 336.188V330.139ZM221.522 330.139V285.289L216.812 287.427V338.326L221.522 336.188V330.139Z" fill="url(#paint23_linear_1_6081)"/>
<path fill-rule="evenodd" clip-rule="evenodd" d="M181.229 316.174V271.325L185.939 273.463V324.362L181.229 322.224V316.174ZM190.65 316.174V271.325L185.939 273.463V324.362L190.65 322.224V316.174Z" fill="url(#paint24_linear_1_6081)"/>
<path fill-rule="evenodd" clip-rule="evenodd" d="M212.101 302.165V257.315L216.812 259.453V310.352L212.101 308.214V302.165ZM221.522 302.165V257.315L216.812 259.453V310.352L221.522 308.214V302.165Z" fill="url(#paint25_linear_1_6081)"/>
<path fill-rule="evenodd" clip-rule="evenodd" d="M242.974 316.174V271.325L247.685 273.463V324.362L242.974 322.224V316.174ZM252.395 316.174V271.325L247.685 273.463V324.362L252.395 322.224V316.174Z" fill="url(#paint26_linear_1_6081)"/>
<path fill-rule="evenodd" clip-rule="evenodd" d="M365.448 229.341V184.492L370.158 186.63V237.529L365.448 235.391V229.341ZM374.869 229.341V184.492L370.158 186.63V237.529L374.869 235.391V229.341Z" fill="url(#paint27_linear_1_6081)"/>
<defs>
<linearGradient id="paint0_linear_1_6081" x1="339.292" y1="200.81" x2="339.292" y2="262.02" gradientUnits="userSpaceOnUse">
<stop stop-color="#572975"/>
<stop offset="1" stop-color="#FF31FF"/>
</linearGradient>
<linearGradient id="paint1_linear_1_6081" x1="370.159" y1="214.723" x2="370.159" y2="275.933" gradientUnits="userSpaceOnUse">
<stop stop-color="#572975"/>
<stop offset="1" stop-color="#FF31FF"/>
</linearGradient>
<linearGradient id="paint2_linear_1_6081" x1="401.028" y1="198.444" x2="401.028" y2="251.495" gradientUnits="userSpaceOnUse">
<stop stop-color="#572975"/>
<stop offset="1" stop-color="#FF31FF"/>
</linearGradient>
<linearGradient id="paint3_linear_1_6081" x1="217.415" y1="140.142" x2="217.415" y2="193.193" gradientUnits="userSpaceOnUse">
<stop stop-color="#572975"/>
<stop offset="1" stop-color="#FF31FF"/>
</linearGradient>
<linearGradient id="paint4_linear_1_6081" x1="185.529" y1="125.605" x2="185.529" y2="178.656" gradientUnits="userSpaceOnUse">
<stop stop-color="#572975"/>
<stop offset="1" stop-color="#FF31FF"/>
</linearGradient>
<linearGradient id="paint5_linear_1_6081" x1="217.415" y1="111.069" x2="217.415" y2="164.12" gradientUnits="userSpaceOnUse">
<stop stop-color="#572975"/>
<stop offset="1" stop-color="#FF31FF"/>
</linearGradient>
<linearGradient id="paint6_linear_1_6081" x1="249.3" y1="125.605" x2="249.3" y2="178.656" gradientUnits="userSpaceOnUse">
<stop stop-color="#572975"/>
<stop offset="1" stop-color="#FF31FF"/>
</linearGradient>
<linearGradient id="paint7_linear_1_6081" x1="363.055" y1="66.5816" x2="363.055" y2="119.632" gradientUnits="userSpaceOnUse">
<stop stop-color="#572975"/>
<stop offset="1" stop-color="#FF31FF"/>
</linearGradient>
<linearGradient id="paint8_linear_1_6081" x1="332.187" y1="52.5985" x2="332.187" y2="105.649" gradientUnits="userSpaceOnUse">
<stop stop-color="#572975"/>
<stop offset="1" stop-color="#FF31FF"/>
</linearGradient>
<linearGradient id="paint9_linear_1_6081" x1="363.055" y1="38.6148" x2="363.055" y2="91.6657" gradientUnits="userSpaceOnUse">
<stop stop-color="#572975"/>
<stop offset="1" stop-color="#FF31FF"/>
</linearGradient>
<linearGradient id="paint10_linear_1_6081" x1="393.923" y1="52.598" x2="393.923" y2="105.649" gradientUnits="userSpaceOnUse">
<stop stop-color="#572975"/>
<stop offset="1" stop-color="#FF31FF"/>
</linearGradient>
<linearGradient id="paint11_linear_1_6081" x1="77.2636" y1="212.427" x2="77.2636" y2="265.478" gradientUnits="userSpaceOnUse">
<stop stop-color="#572975"/>
<stop offset="1" stop-color="#FF31FF"/>
</linearGradient>
<linearGradient id="paint12_linear_1_6081" x1="46.3961" y1="198.444" x2="46.3961" y2="251.495" gradientUnits="userSpaceOnUse">
<stop stop-color="#572975"/>
<stop offset="1" stop-color="#FF31FF"/>
</linearGradient>
<linearGradient id="paint13_linear_1_6081" x1="77.2639" y1="184.46" x2="77.2639" y2="237.511" gradientUnits="userSpaceOnUse">
<stop stop-color="#572975"/>
<stop offset="1" stop-color="#FF31FF"/>
</linearGradient>
<linearGradient id="paint14_linear_1_6081" x1="108.132" y1="198.444" x2="108.132" y2="251.495" gradientUnits="userSpaceOnUse">
<stop stop-color="#572975"/>
<stop offset="1" stop-color="#FF31FF"/>
</linearGradient>
<linearGradient id="paint15_linear_1_6081" x1="70.1584" y1="66.5809" x2="70.1584" y2="119.632" gradientUnits="userSpaceOnUse">
<stop stop-color="#572975"/>
<stop offset="1" stop-color="#FF31FF"/>
</linearGradient>
<linearGradient id="paint16_linear_1_6081" x1="39.2899" y1="58.836" x2="39.2899" y2="111.887" gradientUnits="userSpaceOnUse">
<stop stop-color="#572975"/>
<stop offset="1" stop-color="#FF31FF"/>
</linearGradient>
<linearGradient id="paint17_linear_1_6081" x1="70.1586" y1="38.6141" x2="70.1586" y2="91.665" gradientUnits="userSpaceOnUse">
<stop stop-color="#572975"/>
<stop offset="1" stop-color="#FF31FF"/>
</linearGradient>
<linearGradient id="paint18_linear_1_6081" x1="101.027" y1="52.5979" x2="101.027" y2="105.649" gradientUnits="userSpaceOnUse">
<stop stop-color="#572975"/>
<stop offset="1" stop-color="#FF31FF"/>
</linearGradient>
<linearGradient id="paint19_linear_1_6081" x1="216.829" y1="0" x2="216.829" y2="52.5311" gradientUnits="userSpaceOnUse">
<stop stop-color="#572975"/>
<stop offset="1" stop-color="#FF31FF"/>
</linearGradient>
<linearGradient id="paint20_linear_1_6081" x1="185.962" y1="0.695503" x2="185.962" y2="38.5482" gradientUnits="userSpaceOnUse">
<stop stop-color="#572975"/>
<stop offset="1" stop-color="#FF31FF"/>
</linearGradient>
<linearGradient id="paint21_linear_1_6081" x1="216.829" y1="0.768721" x2="216.829" y2="24.5643" gradientUnits="userSpaceOnUse">
<stop stop-color="#572975"/>
<stop offset="1" stop-color="#FF31FF"/>
</linearGradient>
<linearGradient id="paint22_linear_1_6081" x1="247.697" y1="0.695503" x2="247.697" y2="38.5482" gradientUnits="userSpaceOnUse">
<stop stop-color="#572975"/>
<stop offset="1" stop-color="#FF31FF"/>
</linearGradient>
<linearGradient id="paint23_linear_1_6081" x1="216.825" y1="285.286" x2="216.825" y2="338.337" gradientUnits="userSpaceOnUse">
<stop stop-color="#572975"/>
<stop offset="1" stop-color="#FF31FF"/>
</linearGradient>
<linearGradient id="paint24_linear_1_6081" x1="185.958" y1="271.302" x2="185.958" y2="324.353" gradientUnits="userSpaceOnUse">
<stop stop-color="#572975"/>
<stop offset="1" stop-color="#FF31FF"/>
</linearGradient>
<linearGradient id="paint25_linear_1_6081" x1="216.798" y1="257.319" x2="216.798" y2="310.37" gradientUnits="userSpaceOnUse">
<stop stop-color="#572975"/>
<stop offset="1" stop-color="#FF31FF"/>
</linearGradient>
<linearGradient id="paint26_linear_1_6081" x1="247.694" y1="271.302" x2="247.694" y2="324.353" gradientUnits="userSpaceOnUse">
<stop stop-color="#572975"/>
<stop offset="1" stop-color="#FF31FF"/>
</linearGradient>
<linearGradient id="paint27_linear_1_6081" x1="370.159" y1="186.756" x2="370.159" y2="247.966" gradientUnits="userSpaceOnUse">
<stop stop-color="#572975"/>
<stop offset="1" stop-color="#FF31FF"/>
</linearGradient>
</defs>
</svg>
